<?xml version="1.0" encoding="UTF-8" standalone="no"?>
<!-- Created with Inkscape (http://www.inkscape.org/) -->

<svg
   xmlns:osb="http://www.openswatchbook.org/uri/2009/osb"
   xmlns:dc="http://purl.org/dc/elements/1.1/"
   xmlns:cc="http://creativecommons.org/ns#"
   xmlns:rdf="http://www.w3.org/1999/02/22-rdf-syntax-ns#"
   xmlns:svg="http://www.w3.org/2000/svg"
   xmlns="http://www.w3.org/2000/svg"
   xmlns:sodipodi="http://sodipodi.sourceforge.net/DTD/sodipodi-0.dtd"
   xmlns:inkscape="http://www.inkscape.org/namespaces/inkscape"
   version="1.1"
   id="svg815"
   xml:space="preserve"
   width="1500"
   height="350"
   viewBox="0 0 1500 350"
   sodipodi:docname="2.svg"
   inkscape:version="0.92.4 (5da689c313, 2019-01-14)"><metadata
     id="metadata821"><rdf:RDF><cc:Work
         rdf:about=""><dc:format>image/svg+xml</dc:format><dc:type
           rdf:resource="http://purl.org/dc/dcmitype/StillImage" /><dc:title></dc:title></cc:Work></rdf:RDF></metadata><defs
     id="defs819"><linearGradient
       id="linearGradient2431"
       osb:paint="solid"><stop
         style="stop-color:#333333;stop-opacity:1;"
         offset="0"
         id="stop2429" /></linearGradient><linearGradient
       id="324"
       osb:paint="solid"><stop
         style="stop-color:#333333;stop-opacity:1;"
         offset="0"
         id="stop2423" /></linearGradient><clipPath
       clipPathUnits="userSpaceOnUse"
       id="clipPath849"><path
         d="M 0,600 H 900 V 0 H 0 Z"
         id="path847"
         inkscape:connector-curvature="0" /></clipPath><meshgradient
       inkscape:collect="always"
       id="meshgradient2343" /></defs><sodipodi:namedview
     pagecolor="#ffffff"
     bordercolor="666666"
     borderopacity="1"
     objecttolerance="10"
     gridtolerance="10"
     guidetolerance="10"
     inkscape:pageopacity="0"
     inkscape:pageshadow="2"
     inkscape:window-width="2880"
     inkscape:window-height="1541"
     id="namedview817"
     showgrid="false"
     inkscape:pagecheckerboard="true"
     inkscape:showpageshadow="false"
     showborder="true"
     borderlayer="false"
     inkscape:zoom="2.6410438"
     inkscape:cx="211.8166"
     inkscape:cy="155.28561"
     inkscape:window-x="-11"
     inkscape:window-y="-11"
     inkscape:window-maximized="1"
     inkscape:current-layer="g823"
     inkscape:snap-bbox="true" /><g
     id="g823"
     inkscape:groupmode="layer"
     inkscape:label="Smartfour_v9"
     transform="matrix(1.3333333,0,0,-1.3333333,0,350)"
     style="opacity:0.98000004"><g
       id="g825"
       transform="translate(179.0802,207.4355)"><path
         d="m 0,0 -143.151,-82.75 v 57.326 l 93.536,54.07 z"
         style="fill:#be1e2d;fill-opacity:1;fill-rule:nonzero;stroke:none"
         id="path827"
         inkscape:connector-curvature="0" /></g><g
       id="g829"
       transform="translate(77.5478,143.6597)"><path
         d="m 0,0 v -46.804 l -41.618,22.746 z"
         style="fill:#d91e2d;fill-opacity:1;fill-rule:nonzero;stroke:none"
         id="path831"
         inkscape:connector-curvature="0" /></g><g
       id="g833"
       transform="translate(35.9295,55.8886)"><path
         d="M 0,0 143.151,82.75 V 25.424 l -93.536,-54.07 z"
         style="fill:#be1e2d;fill-opacity:1;fill-rule:nonzero;stroke:none"
         id="path835"
         inkscape:connector-curvature="0" /></g><g
       id="g837"
       transform="translate(137.462,119.6645)"><path
         d="M 0,0 V 46.804 L 41.618,24.058 Z"
         style="fill:#d91e2d;fill-opacity:1;fill-rule:nonzero;stroke:none"
         id="path839"
         inkscape:connector-curvature="0" /></g><path
       d="M 15.05,18.284 H 199.959 V 245.041 H 15.05 Z M 209.691,8.552 H 5.318 v 246.221 h 204.373 z"
       style="fill:#ffffff;fill-opacity:0.98039216;fill-rule:nonzero;stroke:none"
       id="path841"
       inkscape:connector-curvature="0" /><g
       id="g843"
       transform="matrix(2.1170289,0,0,2.1170289,-277.79631,-219.26289)"><g
         id="g845"
         clip-path="url(#clipPath849)"><g
           id="g851"
           transform="translate(288.9634,148.8564)"><path
             d="m 0,0 c 0,-13.229 -11.52,-19.438 -24.209,-19.438 -10.98,0 -21.33,4.049 -28.529,11.789 l 9.449,9.359 c 3.78,-3.689 10.53,-9.18 18.18,-9.18 5.759,0 10.71,2.25 10.71,7.47 0,5.94 -7.02,7.65 -15.93,11.609 -7.379,3.241 -18.989,8.37 -18.989,19.35 0,12.239 11.519,18.629 23.309,18.629 11.07,0 20.609,-4.409 26.639,-10.619 l -8.64,-9.09 c -3.15,2.97 -10.44,7.74 -18.089,7.74 -2.34,0 -8.82,-0.721 -8.82,-6.39 0,-4.049 3.42,-6.66 12.419,-9.99 C -9.54,16.47 0,11.16 0,0"
             style="fill:#000000;fill-opacity:1;fill-rule:nonzero;stroke:none"
             id="path853"
             inkscape:connector-curvature="0" /></g><g
           id="g855"
           transform="translate(326.2231,130.2275)"><path
             d="m 0,0 0.18,0.36 v 21.149 c 0,8.099 -1.53,13.859 -8.73,13.859 -7.559,0 -8.729,-5.76 -8.729,-13.859 V 0 h -13.95 v 45.898 h 13.95 v -7.11 c 2.429,3.96 6.21,7.56 13.589,7.56 7.29,0 11.879,-3.69 13.77,-9.99 2.79,5.85 8.819,9.99 17.099,9.99 9.9,0 18.179,-5.49 18.179,-18.269 V 0 H 31.409 v 21.509 c 0,8.099 -1.08,13.859 -8.73,13.859 -6.929,0 -8.73,-5.76 -8.73,-13.859 L 13.949,0 Z"
             style="fill:#000000;fill-opacity:1;fill-rule:nonzero;stroke:none"
             id="path857"
             inkscape:connector-curvature="0" /></g><g
           id="g859"
           transform="translate(404.3433,148.2266)"><path
             d="m 0,0 h -4.86 c -6.39,0 -8.55,-1.35 -8.55,-4.59 0,-3.239 2.52,-4.68 5.85,-4.68 5.94,0 7.56,2.97 7.56,6.75 z M 13.949,9 V -17.999 H 0 v 4.95 c -2.07,-3.06 -5.76,-5.4 -12.6,-5.4 -9.449,0 -14.759,5.22 -14.759,13.5 0,10.889 8.19,15.029 20.429,15.029 H 0 c 0,4.949 -2.7,7.289 -6.3,7.289 -2.97,0 -5.94,-1.079 -9.09,-3.779 l -8.009,6.84 c 4.41,4.5 11.069,7.919 19.169,7.919 12.149,0 18.179,-6.57 18.179,-19.349"
             style="fill:#000000;fill-opacity:1;fill-rule:nonzero;stroke:none"
             id="path861"
             inkscape:connector-curvature="0" /></g><g
           id="g863"
           transform="translate(449.1631,165.5957)"><path
             d="M 0,0 C -7.92,0 -9.72,-5.939 -9.72,-16.829 V -35.368 H -23.669 V 10.53 H -9.72 V 2.971 c 1.44,5.039 4.95,8.008 11.16,8.008 3.33,0 5.76,-1.349 7.2,-3.149 L 6.66,-2.88 C 6.03,-2.249 3.78,0 0,0"
             style="fill:#000000;fill-opacity:1;fill-rule:nonzero;stroke:none"
             id="path865"
             inkscape:connector-curvature="0" /></g><g
           id="g867"
           transform="translate(489.0327,131.9375)"><path
             d="m 0,0 c -1.71,-1.08 -4.41,-2.16 -9.359,-2.16 -8.37,0 -13.32,4.68 -13.32,17.819 v 17.55 h -4.95 v 10.979 h 4.95 v 11.7 h 13.95 v -11.7 H 0 V 33.209 H -8.729 V 16.649 C -8.729,9.63 -5.85,6.84 0,8.909 Z"
             style="fill:#000000;fill-opacity:1;fill-rule:nonzero;stroke:none"
             id="path869"
             inkscape:connector-curvature="0" /></g><g
           id="g871"
           transform="translate(517.6523,187.1953)"><path
             d="m 0,0 c -3.24,0 -5.22,-2.52 -5.22,-6.93 v -4.139 H 5.31 v -10.98 H -5.22 v -34.919 h -13.949 v 34.919 h -4.95 v 10.98 h 4.95 v 3.329 c 0,13.139 5.85,18.719 14.219,18.719 C 0,10.979 3.6,9 5.31,7.02 V -1.89 C 4.05,-0.9 2.07,0 0,0"
             style="fill:#be1e2d;fill-opacity:1;fill-rule:nonzero;stroke:none"
             id="path873"
             inkscape:connector-curvature="0" /></g><g
           id="g875"
           transform="translate(539.6138,153.0869)"><path
             d="m 0,0 c 0,-7.2 3.33,-12.33 10.08,-12.33 6.749,0 10.079,5.13 10.079,12.33 0,7.289 -3.33,12.509 -10.079,12.509 C 3.33,12.509 0,7.289 0,0 m 34.108,0 c 0,-15.029 -11.249,-23.31 -24.028,-23.31 -12.78,0 -24.03,8.281 -24.03,23.31 0,15.029 11.25,23.488 24.03,23.488 12.779,0 24.028,-8.459 24.028,-23.488"
             style="fill:#be1e2d;fill-opacity:1;fill-rule:nonzero;stroke:none"
             id="path877"
             inkscape:connector-curvature="0" /></g><g
           id="g879"
           transform="translate(592.4438,176.126)"><path
             d="m 0,0 v -26.64 c 0,-6.839 2.52,-9.718 7.74,-9.718 5.399,0 7.739,2.879 7.739,9.718 V 0 h 13.32 v -45.898 h -13.32 v 5.129 c -2.879,-3.69 -8.189,-5.58 -12.959,-5.58 -10.62,0 -15.749,6.031 -15.749,18.81 L -13.319,0 Z"
             style="fill:#be1e2d;fill-opacity:1;fill-rule:nonzero;stroke:none"
             id="path881"
             inkscape:connector-curvature="0" /></g><g
           id="g883"
           transform="translate(651.2129,165.5957)"><path
             d="M 0,0 C -7.92,0 -9.72,-5.939 -9.72,-16.829 V -35.368 H -23.669 V 10.53 H -9.72 V 2.971 c 1.44,5.039 4.95,8.008 11.16,8.008 3.33,0 5.76,-1.349 7.2,-3.149 L 6.66,-2.88 C 6.03,-2.249 3.78,0 0,0"
             style="fill:#be1e2d;fill-opacity:1;fill-rule:nonzero;stroke:none"
             id="path885"
             inkscape:connector-curvature="0" /></g></g></g><path
       style="fill:url(#meshgradient2343);fill-opacity:1;stroke-width:0.37863818"
       d=""
       id="path899"
       inkscape:connector-curvature="0"
       transform="matrix(0.75000002,0,0,-0.75000002,0,600.00002)" /><path
       style="opacity:0.02000002;fill:#f9f9f9;fill-opacity:0.98039216;stroke-width:0.53547525"
       d="m 363.65007,276.10759 c -24.04994,-2.69632 -45.76666,-12.45625 -62.63165,-28.14793 l -4.50547,-4.19202 13.29185,-12.92977 13.29186,-12.92977 4.78168,4.22008 c 18.49412,16.32196 36.7332,23.36672 53.99059,20.85359 10.88397,-1.58499 18.06823,-5.9108 21.31503,-12.83425 1.18798,-2.53324 1.40285,-3.72958 1.40285,-7.8107 0,-4.19626 -0.19416,-5.21466 -1.50188,-7.87769 -3.40295,-6.92976 -10.62311,-11.48777 -33.30402,-21.02452 -16.41498,-6.90208 -31.34888,-14.2883 -38.55421,-19.06869 -6.64301,-4.4073 -14.92677,-12.2906 -18.19892,-17.31911 -5.93702,-9.12378 -7.89866,-19.53398 -5.87143,-31.159 1.71386,-9.82799 6.26002,-18.04575 14.07722,-25.44634 9.15706,-8.66905 21.33601,-14.308903 36.49279,-16.899149 6.93973,-1.185979 22.35313,-1.155358 30.26071,0.06012 20.82824,3.201512 39.36067,11.498151 53.96031,24.157079 l 4.69659,4.07227 -1.216,1.51054 c -0.6688,0.83079 -6.03527,6.56677 -11.9255,12.74662 -10.39349,10.90451 -10.74245,11.21047 -11.82596,10.36848 -10.41674,-8.09488 -17.01071,-12.08276 -25.7852,-15.5943 -17.41344,-6.96885 -35.58082,-6.52617 -44.24151,1.07802 -4.43676,3.89553 -6.3158,11.29862 -4.37512,17.23726 2.86585,8.76975 11.08298,14.23798 35.89312,23.8857 15.71031,6.10915 22.22895,8.98768 29.49874,13.02618 17.43427,9.68506 27.09667,20.3628 30.86161,34.10462 1.64811,6.01552 1.63859,18.26667 -0.0194,24.92744 -5.20103,20.89486 -21.88049,34.76598 -48.07276,39.97868 -6.71928,1.33725 -23.96517,1.88337 -31.78595,1.00656 z"
       id="path1580"
       inkscape:connector-curvature="0"
       transform="matrix(0.75000002,0,0,-0.75000002,0,262.50001)" /><path
       style="opacity:0.02000002;fill:#f9f9f9;fill-opacity:0.98039216;stroke-width:0.53547525"
       d="m 363.35521,276.09596 c -25.19318,-3.03229 -49.08555,-14.24 -64.69143,-30.34621 l -2.04084,-2.10626 13.22154,-12.89159 13.22153,-12.89159 4.39608,3.91122 c 18.5511,16.50501 37.08797,23.73992 54.35589,21.21502 10.82617,-1.583 18.08604,-5.96012 21.37157,-12.88534 1.18437,-2.49639 1.39726,-3.6794 1.39726,-7.76439 0,-6.28097 -1.4946,-9.55323 -6.42828,-14.07405 -4.3961,-4.02823 -10.81374,-7.34873 -30.14881,-15.59904 -27.22339,-11.61626 -38.50925,-18.06907 -47.80115,-27.33079 -5.82466,-5.80576 -8.91525,-10.26464 -11.18758,-16.14064 -4.64498,-12.01142 -3.16817,-26.92003 3.83691,-38.73424 2.78341,-4.69428 9.51395,-11.733843 14.51512,-15.181564 18.64287,-12.852072 45.00516,-16.171249 72.86152,-9.173718 14.89271,3.741057 28.83343,10.843505 40.50541,20.636502 2.53663,2.12828 4.91261,4.23174 5.27995,4.67435 0.56402,0.67961 -1.09726,2.66366 -10.68267,12.75821 -6.2428,6.57441 -11.61914,12.24558 -11.94741,12.60261 -0.45768,0.49778 -1.59576,-0.15204 -4.88066,-2.78676 -5.59431,-4.48701 -13.67661,-9.28587 -20.7762,-12.33584 -21.56036,-9.2623 -43.24885,-7.16646 -49.53438,4.7867 -1.24786,2.37303 -1.4325,3.34893 -1.42753,7.54485 0.007,5.96316 1.20808,8.75129 5.64295,13.09986 5.47339,5.36689 12.57857,8.905 37.1795,18.51396 33.14661,12.94686 48.48068,25.61521 53.9476,44.56921 1.01638,3.52385 1.18771,5.37055 1.15395,12.43812 -0.0342,7.16329 -0.23003,9.01188 -1.4299,13.49932 -5.42165,20.27661 -22.03984,33.8297 -47.82912,39.0074 -4.6132,0.92619 -8.15226,1.20744 -16.81977,1.33665 -6.03749,0.09 -12.90496,-0.0684 -15.26105,-0.35196 z"
       id="path1582"
       inkscape:connector-curvature="0"
       transform="matrix(0.75000002,0,0,-0.75000002,0,262.50001)" /><path
       style="opacity:0.02000002;fill:#f9f9f9;fill-opacity:0.98039216;stroke-width:0.53547525"
       d="m 462.68587,210.02089 v -64.52477 h 19.27711 19.27711 v 9.90629 c 0,5.44846 0.18072,9.90586 0.4016,9.90534 0.22089,-5.3e-4 1.11538,-1.1307 1.98777,-2.5115 3.64304,-5.76609 11.25768,-12.37409 17.15547,-14.88754 5.63443,-2.40121 9.05798,-3.06488 17.22353,-3.33885 11.65715,-0.39112 17.70138,1.0621 25.43947,6.11644 6.26852,4.09446 11.86494,11.4951 14.19576,18.77234 0.49522,1.54618 1.03712,2.80566 1.20422,2.79885 0.1671,-0.007 1.26768,-1.73348 2.44572,-3.83703 4.18814,-7.47843 13.42544,-15.65587 21.95449,-19.43548 6.81794,-3.02134 12.16468,-4.1067 21.68674,-4.40232 10.40435,-0.323 16.20419,0.47481 23.5729,3.24261 18.03373,6.77374 27.98131,21.33015 29.47284,43.12794 0.2541,3.71346 0.47095,24.0409 0.48189,45.17209 l 0.0199,38.42035 h -19.50911 -19.50911 l -0.22502,-37.3494 c -0.19231,-31.92054 -0.35331,-37.99104 -1.10763,-41.76378 -2.27293,-11.3681 -7.04782,-17.46066 -15.46493,-19.7326 -3.8565,-1.04094 -12.25591,-1.00518 -15.93788,0.0678 -8.03959,2.34297 -13.09422,8.86264 -15.66625,20.20697 -1.06586,4.70112 -1.13088,6.74538 -1.3281,41.75704 l -0.20738,36.81392 h -19.21413 -19.21413 l -0.20342,-37.61713 c -0.18146,-33.55576 -0.30499,-38.04742 -1.14422,-41.60248 -1.51849,-6.43255 -3.41092,-10.52245 -6.36376,-13.75333 -4.50201,-4.92592 -9.08798,-6.68199 -17.42416,-6.6721 -13.81456,0.0164 -20.39448,6.06945 -23.44164,21.56461 -0.74171,3.77168 -0.91384,10.08233 -1.12555,41.26651 l -0.24993,36.81392 h -19.23008 -19.23009 z"
       id="path1584"
       inkscape:connector-curvature="0"
       transform="matrix(0.75000002,0,0,-0.75000002,0,262.50001)" /><path
       style="opacity:0.02000002;fill:#f9f9f9;fill-opacity:0.98039216;stroke-width:0.53547525"
       d="m 462.68587,210.02089 v -64.52477 h 19.27711 19.27711 v 9.90629 c 0,5.44846 0.18072,9.89965 0.4016,9.89153 0.22089,-0.008 1.36546,-1.47201 2.54351,-3.25307 2.69181,-4.06969 8.196,-9.32785 12.5033,-11.94439 6.58845,-4.00227 13.39629,-5.65031 23.37354,-5.65826 10.35831,-0.008 17.39502,1.96905 24.56647,6.90314 5.27221,3.62738 11.28077,12.10739 13.21649,18.65275 0.37017,1.25168 0.83123,2.27577 1.02458,2.27577 0.19334,0 0.7811,-0.90361 1.30612,-2.00803 3.81036,-8.01537 13.64914,-17.07783 23.11251,-21.28882 6.75013,-3.00366 12.13068,-4.09494 21.64665,-4.39037 15.91741,-0.49415 26.22931,2.49793 36.86532,10.69676 6.24013,4.81025 12.30805,14.82008 14.53352,23.97496 1.7954,7.38569 2.11664,15.91 2.13307,56.60319 l 0.0156,38.68808 H 658.93754 639.3927 v -33.6782 c 0,-33.76982 -0.31608,-41.51901 -1.96804,-48.24951 -2.33333,-9.50661 -6.96317,-14.81408 -14.75807,-16.91807 -3.8565,-1.04094 -12.25591,-1.00518 -15.93788,0.0678 -8.03959,2.34297 -13.09422,8.86264 -15.66625,20.20697 -1.06586,4.70112 -1.13088,6.74538 -1.3281,41.75704 l -0.20738,36.81392 h -19.21413 -19.21413 l -0.20404,-37.61713 c -0.19461,-35.87736 -0.25547,-37.82764 -1.31589,-42.16868 -2.32068,-9.50015 -6.22785,-15.07354 -12.61053,-17.98837 -2.91602,-1.33169 -4.11011,-1.54733 -9.56628,-1.72762 -14.99525,-0.49548 -21.68101,5.2998 -24.9076,21.59015 -0.70761,3.57258 -0.88997,10.3959 -1.09841,41.09773 l -0.24993,36.81392 h -19.23008 -19.23009 z"
       id="path1586"
       inkscape:connector-curvature="0"
       transform="matrix(0.75000002,0,0,-0.75000002,0,262.50001)" /><path
       style="opacity:0.02000002;fill:#f9f9f9;fill-opacity:0.98039216;stroke-width:0.53547525"
       d="m 462.68587,210.02089 v -64.52477 h 19.27711 19.27711 v 9.90629 c 0,5.44846 0.18072,9.90586 0.4016,9.90534 0.22089,-5.3e-4 1.11538,-1.1307 1.98777,-2.5115 2.45367,-3.8836 7.52994,-9.01643 11.57965,-11.70867 7.23658,-4.81086 14.26676,-6.70066 24.92696,-6.70066 10.08679,0 17.4045,2.07781 24.49244,6.95444 5.27221,3.62738 11.28077,12.10739 13.21649,18.65275 0.37017,1.25168 0.83123,2.27577 1.02458,2.27577 0.19334,0 0.7811,-0.90361 1.30612,-2.00803 4.23484,-8.9083 15.13739,-18.38099 25.75539,-22.3776 12.02683,-4.52688 29.09127,-4.74723 41.44214,-0.53514 7.8451,2.67547 15.07268,7.52635 19.9057,13.35997 3.49491,4.21848 7.66601,12.75131 9.05409,18.52198 1.81593,7.5494 2.12453,15.68716 2.13722,56.35877 l 0.0122,38.95582 h -19.50911 -19.50911 l -0.22494,-37.3494 c -0.18555,-30.81203 -0.36873,-38.05233 -1.04651,-41.36546 -3.04747,-14.89655 -9.7968,-20.92621 -23.41993,-20.92268 -13.33154,0.003 -20.30329,6.22964 -23.7279,21.19042 -1.04394,4.5606 -1.11428,6.79522 -1.31053,41.6332 l -0.20738,36.81392 H 570.3129 551.09877 l -0.20404,-37.61713 c -0.19593,-36.12078 -0.24918,-37.80232 -1.33853,-42.27254 -2.26034,-9.27546 -6.29801,-15.01207 -12.58789,-17.88451 -2.91602,-1.33169 -4.11011,-1.54733 -9.56628,-1.72762 -4.70112,-0.15534 -7.00573,0.013 -9.37082,0.68431 -6.40659,1.81857 -11.25201,6.60071 -13.58662,13.40919 -2.67459,7.8 -2.77583,9.41412 -3.0479,48.59438 l -0.25563,36.81392 h -19.22757 -19.22757 z"
       id="path1588"
       inkscape:connector-curvature="0"
       transform="matrix(0.75000002,0,0,-0.75000002,0,262.50001)" /><path
       style="opacity:0.02000002;fill:#f9f9f9;fill-opacity:0.98039216;stroke-width:0.53547525"
       d="m 723.46231,274.59892 c -14.94825,-3.30955 -23.65883,-11.00831 -27.92939,-24.68513 -1.0844,-3.47288 -1.25227,-5.10244 -1.24111,-12.04819 0.0149,-9.29883 0.69998,-12.61229 3.99975,-19.34622 5.5433,-11.31241 16.26025,-17.99908 34.33201,-21.42093 3.25395,-0.61612 9.20276,-0.92623 21.56691,-1.12426 l 17.07355,-0.27346 -0.29763,-3.55009 c -0.73769,-8.79923 -5.58242,-15.11921 -12.95518,-16.90014 -2.70171,-0.65261 -9.74873,-0.37547 -13.26674,0.52176 -4.30846,1.09881 -10.00227,3.91056 -14.00404,6.91555 -2.63738,1.98044 -3.31122,2.26909 -4.05084,1.7352 -0.48797,-0.35222 -5.53423,-4.60332 -11.21392,-9.44687 l -10.3267,-8.80645 2.81037,-2.43853 c 10.30063,-8.93772 20.4377,-14.25221 33.45815,-17.54085 5.5723,-1.40743 6.49121,-1.48245 17.92165,-1.46319 11.2946,0.019 12.37246,0.10819 17.23253,1.42548 18.25103,4.94685 28.63966,16.99775 32.41282,37.59917 0.76749,4.19049 0.9155,10.69431 1.08829,47.82199 l 0.19999,42.97189 H 790.69619 771.1196 v -6.94403 -6.94402 l -4.14993,4.18662 c -4.72017,4.7619 -9.32113,7.34021 -16.46586,9.22721 -6.27509,1.65732 -20.67009,1.93811 -27.0415,0.52749 z m 35.68993,-25.47607 c 4.75583,-1.42332 7.69429,-3.8077 9.80278,-7.95439 1.78471,-3.50991 1.86891,-3.93893 2.07569,-10.57564 l 0.21553,-6.91732 h -9.58205 c -15.39431,0 -22.24048,1.31672 -25.74681,4.95185 -2.23451,2.3166 -2.81883,4.05325 -2.80476,8.33603 0.0234,7.11319 3.73006,11.31167 11.45101,12.97028 3.01295,0.64725 11.24555,0.18969 14.58861,-0.81081 z"
       id="path1590"
       inkscape:connector-curvature="0"
       transform="matrix(0.75000002,0,0,-0.75000002,0,262.50001)" /><path
       style="opacity:0.02000002;fill:#f9f9f9;fill-opacity:0.98039216;stroke-width:0.53547525"
       d="m 831.09283,210.02089 v -64.52477 h 19.26579 19.26579 l 0.14519,10.57564 c 0.0932,6.78592 0.31706,10.19186 0.62482,9.50468 3.55111,-7.92902 4.26244,-9.12646 7.30164,-12.29147 3.88127,-4.04194 9.0541,-6.96211 14.30318,-8.07444 4.18622,-0.8871 13.25897,-1.0056 16.6761,-0.21781 3.48616,0.8037 7.9808,3.16916 10.6224,5.59041 l 2.33682,2.14191 -2.6956,14.45783 c -1.48258,7.9518 -2.69785,14.65468 -2.70058,14.89528 -0.003,0.24061 -1.02908,-0.39358 -2.28076,-1.40929 -5.05299,-4.10041 -10.00362,-5.78368 -16.97764,-5.7726 -15.47466,0.0246 -22.88752,7.67685 -26.03363,26.87439 -0.76942,4.69497 -0.95164,10.86598 -1.15673,39.17393 l -0.24343,33.60107 h -19.22668 -19.22668 z"
       id="path1592"
       inkscape:connector-curvature="0"
       transform="matrix(0.75000002,0,0,-0.75000002,0,262.50001)" /><path
       style="opacity:0.02000002;fill:#ffffff;fill-opacity:0.98039216;stroke-width:0.53547525"
       d="m 973.79698,274.85613 c -12.39227,-2.86048 -19.58881,-9.52455 -23.77326,-22.01429 -3.30547,-9.86618 -3.38984,-10.91491 -3.64915,-45.36446 l -0.23681,-31.45917 h -6.92006 -6.92005 v -15.26105 -15.26104 h 6.96118 6.96117 v -16.59973 -16.59973 h 19.54485 19.54485 v 16.59973 16.59973 h 12.31593 12.31597 v 15.26104 15.26105 h -12.33821 -12.33816 l 0.16269,28.24632 c 0.15826,27.47624 0.19485,28.34127 1.34185,31.72934 2.49751,7.37727 6.79571,10.70707 13.82103,10.70707 2.1042,0 5.0087,-0.35884 6.4544,-0.79742 1.4457,-0.43858 2.6889,-0.80002 2.7625,-0.80321 0.074,-0.003 0.1339,5.54825 0.1339,12.33653 v 12.34232 l -3.8822,1.83517 c -2.1352,1.00934 -5.569,2.2177 -7.63056,2.68524 -5.25928,1.19273 -20.39426,1.53471 -24.63186,0.55656 z"
       id="path1594"
       inkscape:connector-curvature="0"
       transform="matrix(0.75000002,0,0,-0.75000002,0,262.50001)" /><path
       style="opacity:0.02000002;fill:#ffffff;fill-opacity:0.98039216;stroke-width:0.53547525"
       d="m 363.35521,276.06392 c -24.58601,-2.77531 -48.98189,-14.14991 -64.41954,-30.0357 l -2.30442,-2.37132 13.18984,-12.92517 13.18985,-12.92517 5.17883,4.57226 c 18.33596,16.18836 36.93356,23.20878 54.33998,20.51283 10.27408,-1.59127 17.45606,-6.03762 20.6598,-12.79044 1.18437,-2.49639 1.39726,-3.6794 1.39726,-7.76439 0,-6.28097 -1.4946,-9.55323 -6.42828,-14.07405 -4.39645,-4.02855 -10.8137,-7.34871 -30.15584,-15.60204 -28.21733,-12.04038 -38.58176,-18.01701 -48.28871,-27.84561 -8.8994,-9.01092 -12.66927,-16.94715 -13.22336,-27.83748 -0.68832,-13.52846 3.55342,-25.0083 12.79871,-34.63841 13.68441,-14.254001 35.76277,-21.433957 60.1476,-19.560208 19.94525,1.532607 36.65523,6.970502 51.92364,16.897404 4.02213,2.615034 13.16844,9.940794 14.66981,11.749834 0.578,0.69645 -1.0033,2.58401 -10.6881,12.75821 -6.25156,6.56746 -11.65594,12.25675 -12.00972,12.64288 -0.52112,0.56875 -1.1926,0.22932 -3.53654,-1.78776 -4.30551,-3.70511 -11.7912,-8.50469 -17.86136,-11.45212 -10.75517,-5.22229 -20.59429,-7.67866 -30.54661,-7.62607 -11.53394,0.0609 -19.63736,3.72212 -23.18947,10.47715 -1.24557,2.36869 -1.43338,3.3566 -1.43433,7.54485 -10e-4,5.1122 0.7194,7.22705 3.87411,11.37063 3.22426,4.23495 13.82432,10.41291 25.836,15.05782 17.60162,6.80654 21.84362,8.55683 28.64792,11.82044 28.99947,13.90924 40.90393,29.81072 39.71504,53.04964 -0.39748,7.76924 -1.80741,13.27586 -5.14145,20.08032 -8.27224,16.88288 -26.14642,27.68698 -50.89154,30.76153 -5.33302,0.66262 -19.34064,0.62967 -25.44912,-0.0599 z"
       id="path1596"
       inkscape:connector-curvature="0"
       transform="matrix(0.75000002,0,0,-0.75000002,0,262.50001)" /><path
       style="opacity:0.02000002;fill:#ffffff;fill-opacity:0.98039216;stroke-width:0.53547525"
       d="m 462.68587,210.02089 v -64.52477 h 19.27711 19.27711 v 9.90629 c 0,5.44846 0.18072,9.89981 0.4016,9.89189 0.22089,-0.008 1.00402,-1.02935 1.7403,-2.26985 1.93261,-3.2561 9.94629,-11.07157 13.48203,-13.14856 6.33651,-3.72225 13.96577,-5.48539 23.73778,-5.48585 7.89333,-3.7e-4 13.30628,1.16553 19.54056,4.20888 7.61533,3.71752 15.17762,12.85721 17.70264,21.39519 0.37017,1.25168 0.83123,2.27577 1.02458,2.27577 0.19334,0 0.7811,-0.90361 1.30612,-2.00803 2.26334,-4.76111 8.28947,-11.64374 14.33121,-16.3681 2.19267,-1.71457 7.58979,-4.56623 11.24866,-5.94343 15.1156,-5.6895 35.27185,-4.66931 48.63043,2.46138 8.57438,4.57693 14.10765,10.38856 18.51306,19.44442 2.11982,4.35754 2.79278,6.63492 4.82725,16.33612 0.21617,1.03079 0.49007,21.33199 0.60867,45.11379 l 0.21563,43.23962 h -19.54323 -19.54321 l -0.22494,-37.3494 c -0.18555,-30.81203 -0.36873,-38.05233 -1.04651,-41.36546 -3.04747,-14.89655 -9.7968,-20.92621 -23.41993,-20.92268 -10.7185,0.003 -17.12938,3.9532 -21.11412,13.01063 -3.64768,8.2913 -4.05562,13.61821 -4.06078,53.02584 l -0.004,33.60107 H 570.3465 551.09911 l -0.2109,-37.61713 c -0.1851,-33.01339 -0.32175,-38.07588 -1.11658,-41.36547 -2.52366,-10.4448 -6.11799,-15.68383 -12.92205,-18.83489 -2.80374,-1.29846 -4.0067,-1.51354 -9.44721,-1.68912 -7.38526,-0.23833 -11.05079,0.59165 -15.27991,3.45982 -5.02773,3.40978 -8.26088,9.8132 -9.83983,19.48832 -0.4485,2.74824 -0.72806,15.36434 -0.89254,40.28002 l -0.2395,36.27845 h -19.23216 -19.23217 z"
       id="path1598"
       inkscape:connector-curvature="0"
       transform="matrix(0.75000002,0,0,-0.75000002,0,262.50001)" /><path
       style="opacity:0.02000002;fill:#ffffff;fill-opacity:0.98039216;stroke-width:0.53547525"
       d="m 462.68587,210.02089 v -64.52477 h 19.27711 19.27711 v 9.90629 c 0,5.44846 0.18072,9.89981 0.4016,9.89189 0.22089,-0.008 1.00402,-1.02986 1.7403,-2.27097 1.88393,-3.17566 9.95942,-11.02809 13.52092,-13.14744 4.57632,-2.72325 9.72307,-4.27339 16.99249,-5.11794 3.63475,-0.42228 6.87063,-0.68596 7.19085,-0.58597 0.32022,0.1 2.26896,0.31418 4.33054,0.47597 6.46965,0.50771 11.37676,1.93432 16.30023,4.73884 2.94129,1.67543 10.2058,8.41121 10.2058,9.46301 0,0.31277 0.24096,0.56868 0.53547,0.56868 0.29451,0 0.53548,0.34136 0.53548,0.75859 0,0.41722 0.20887,0.83891 0.46417,0.93708 0.64387,0.24759 4.89058,9.15487 4.89058,10.25776 0,1.23436 0.9244,1.13233 1.33039,-0.14684 0.83786,-2.63984 5.84498,-9.21909 9.69218,-12.73531 5.42495,-4.95823 5.42898,-4.96151 6.09003,-4.96151 0.30695,0 0.55808,-0.18383 0.55808,-0.4085 0,-0.22467 0.4497,-0.64636 0.99933,-0.93708 0.54962,-0.29072 2.23948,-1.19687 3.75524,-2.01366 3.45823,-1.86355 11.26376,-4.46983 14.79028,-4.93852 5.58218,-0.7419 6.56551,-0.80946 11.78045,-0.80946 5.23233,0 6.28597,0.0729 11.78046,0.81544 3.85503,0.52095 11.51201,3.13235 15.81592,5.39399 3.4965,1.83736 11.76105,8.32919 11.76105,9.23835 0,0.23027 0.43863,0.88949 0.97473,1.46493 0.53611,0.57543 1.67175,2.24738 2.52366,3.71542 0.8519,1.46805 1.74008,2.75 1.97372,2.84879 0.23363,0.0988 0.28859,0.39998 0.12211,0.66934 -0.16646,0.26936 -0.007,0.48974 0.35365,0.48974 0.36098,0 0.50529,0.15103 0.3207,0.33563 -0.18459,0.18459 0.0211,1.02544 0.45708,1.86855 0.43599,0.84311 0.80831,1.71617 0.82739,1.94014 0.0191,0.22397 0.23641,0.65029 0.48297,0.94737 0.57263,0.68998 2.10861,7.01837 2.9881,12.31126 0.19575,1.17804 0.46176,21.47925 0.59114,45.11378 l 0.23523,42.97189 H 658.97255 639.3927 v -33.64194 c 0,-20.49771 -0.22941,-35.9213 -0.58715,-39.47583 -1.88732,-18.75249 -8.92973,-26.52368 -24.03276,-26.51977 -10.41583,0.003 -16.604,3.635 -20.5926,12.08734 -4.24046,8.98607 -4.58669,13.06702 -4.58669,54.0619 v 33.4883 h -19.27711 -19.27711 v -34.87103 c 0,-28.98473 -0.14247,-35.83055 -0.84402,-40.55525 -1.82864,-12.31522 -5.71549,-18.84002 -13.34607,-22.40383 -3.03889,-1.41929 -3.61878,-1.50054 -10.70951,-1.50054 -7.30084,0 -7.58978,0.0441 -11.06218,1.68926 -8.45984,4.00808 -12.07166,11.44913 -13.27499,27.34905 -0.30694,4.0557 -0.55905,21.53063 -0.56025,38.83317 l -0.002,31.45917 h -19.27711 -19.27711 z"
       id="path1600"
       inkscape:connector-curvature="0"
       transform="matrix(0.75000002,0,0,-0.75000002,0,262.50001)" /><path
       style="opacity:0.02000002;fill:#ffffff;fill-opacity:0.98039216;stroke-width:0.53547525"
       d="m 723.46231,274.59892 c -12.35867,-2.73622 -20.55756,-8.55482 -25.15564,-17.8525 -2.91107,-5.88642 -3.73618,-9.14798 -4.12568,-16.30831 -1.30324,-23.95806 11.28811,-38.21853 38.24423,-43.3139 3.49491,-0.66062 9.04706,-0.95421 21.76561,-1.15092 l 17.07391,-0.26408 -0.29971,-3.57496 c -0.34915,-4.16459 -1.84233,-8.42936 -3.89228,-11.11698 -1.73224,-2.27109 -5.58221,-4.81104 -8.47181,-5.58913 -3.04544,-0.82005 -9.99939,-0.6414 -13.85646,0.35598 -5.10957,1.32125 -12.00766,4.95404 -15.50645,8.16626 -1.27787,1.17321 -1.56859,1.24432 -2.40964,0.58945 -0.52605,-0.4096 -5.62288,-4.71924 -11.3263,-9.57698 l -10.36986,-8.83226 2.33773,-2.06183 c 10.13395,-8.93794 20.78344,-14.54692 33.95988,-17.88634 5.5309,-1.40174 6.52482,-1.48524 17.64157,-1.48198 10.38842,0.003 12.33201,0.14348 16.44814,1.18852 9.36688,2.37816 15.91388,6.00546 21.46996,11.8952 7.39734,7.84157 11.34117,17.7707 12.6661,31.88867 0.32177,3.42859 0.55298,22.39435 0.55324,45.38152 l 4.5e-4,39.4913 H 790.66445 771.1196 v -6.94403 -6.94402 l -4.14993,4.18662 c -4.72017,4.7619 -9.32113,7.34021 -16.46586,9.22721 -6.27509,1.65732 -20.67009,1.93811 -27.0415,0.52749 z m 35.68993,-25.47607 c 4.75583,-1.42332 7.69429,-3.8077 9.80278,-7.95439 1.78768,-3.51577 1.86865,-3.93053 2.07783,-10.64424 l 0.21766,-6.98593 -12.51525,0.27906 c -13.99889,0.31213 -18.14263,1.06995 -21.79305,3.98558 -2.87737,2.29819 -3.84167,4.56281 -3.82876,8.99172 0.0213,7.29386 3.65598,11.46467 11.45018,13.13901 3.01295,0.64725 11.24555,0.18969 14.58861,-0.81081 z"
       id="path1602"
       inkscape:connector-curvature="0"
       transform="matrix(0.75000002,0,0,-0.75000002,0,262.50001)" /><path
       style="opacity:0.02000002;fill:#ffffff;fill-opacity:0.98039216;stroke-width:0.53547525"
       d="m 831.09283,210.02089 v -64.52477 h 19.26579 19.26579 l 0.14519,10.57564 c 0.0907,6.60396 0.32058,10.17344 0.61222,9.50468 2.94549,-6.75415 4.8888,-10.0616 7.42731,-12.64099 3.35388,-3.4079 9.00686,-6.54595 13.84761,-7.68702 3.91225,-0.9222 13.50343,-1.0661 17.02014,-0.25537 3.62974,0.83679 7.80764,3.01548 10.52069,5.48632 l 2.46579,2.24566 -2.71499,14.50823 c -1.49324,7.97952 -2.71498,14.6824 -2.71498,14.89528 0,0.21289 -1.02409,-0.44398 -2.27577,-1.45969 -5.05299,-4.10041 -10.00362,-5.78368 -16.97764,-5.7726 -15.47466,0.0246 -22.88752,7.67685 -26.03363,26.87439 -0.76942,4.69497 -0.95164,10.86598 -1.15673,39.17393 l -0.24343,33.60107 h -19.22668 -19.22668 z"
       id="path1604"
       inkscape:connector-curvature="0"
       transform="matrix(0.75000002,0,0,-0.75000002,0,262.50001)" /><path
       style="opacity:0.02000002;fill:#ffffff;fill-opacity:0.98039216;stroke-width:0.53547525"
       d="m 973.2615,274.76919 c -4.73873,-1.05038 -10.52327,-3.83742 -13.71998,-6.61041 -5.58527,-4.84496 -9.97929,-13.86313 -12.02057,-24.67069 -0.83679,-4.4304 -0.98769,-9.11311 -1.16904,-36.27845 l -0.20823,-31.19143 h -6.92302 -6.92301 v -15.26105 -15.26104 h 6.96118 6.96117 v -16.59973 -16.59973 h 19.54485 19.54485 v 16.59973 16.59973 h 12.31593 12.31597 v 15.26104 15.26105 h -12.34228 -12.34224 l 0.17141,28.24632 c 0.16642,27.42453 0.20558,28.34765 1.34591,31.72934 2.48595,7.37211 6.78937,10.70707 13.8164,10.70707 2.1042,0 5.0087,-0.35884 6.4544,-0.79742 1.4457,-0.43858 2.6889,-0.80002 2.7625,-0.80321 0.074,-0.003 0.1339,5.5329 0.1339,12.30242 v 12.30823 l -3.2491,1.64013 c -5.6337,2.84385 -10.40156,3.77658 -20.57959,4.02592 -6.93002,0.16978 -9.99787,0.0247 -12.85141,-0.60782 z"
       id="path1606"
       inkscape:connector-curvature="0"
       transform="matrix(0.75000002,0,0,-0.75000002,0,262.50001)" /><path
       style="opacity:0.02000002;fill:#ffffff;fill-opacity:0.98039216;stroke-width:1.07095051"
       d="M 7.5844523,174.54861 V 10.693189 H 143.59516 279.60587 V 174.54861 338.40403 H 143.59516 7.5844523 Z m 259.1700177,0 V 22.473645 H 143.05969 19.364907 V 173.83464 c 0,83.24856 0.321286,151.68229 0.713968,152.07497 0.392681,0.39268 56.055332,0.71397 123.694785,0.71397 h 122.98081 z"
       id="path1608"
       inkscape:connector-curvature="0"
       transform="matrix(0.75000002,0,0,-0.75000002,0,262.50001)" /><path
       style="opacity:0.02000002;fill:#f9f9f9;fill-opacity:0.98039216;stroke-width:0.75727636"
       d="M 7.5880584,174.4327 V 10.482373 H 143.51916 279.45026 V 174.4327 338.38303 H 143.51916 7.5880584 Z m 259.3671416,0 V 22.977433 H 143.51916 20.083118 L 19.891943,174.62428 19.700768,326.27114 143.32799,326.07955 266.9552,325.88797 Z"
       id="path1610"
       inkscape:connector-curvature="0"
       transform="matrix(0.75000002,0,0,-0.75000002,0,262.50001)" /><path
       style="opacity:0.02000002;fill:#f9f9f9;fill-opacity:0.98039216;stroke-width:0.75727636"
       d="M 7.061048,174.35665 V 10.784958 H 142.99215 278.92325 V 174.35665 337.92834 H 142.99215 7.061048 Z m 259.745782,0 V 22.901379 H 143.37079 19.934746 V 174.35665 325.81191 H 143.37079 266.80683 Z"
       id="path1612"
       inkscape:connector-curvature="0"
       transform="matrix(0.75000002,0,0,-0.75000002,0,262.50001)" /><path
       style="opacity:0.02000002;fill:#f9f9f9;fill-opacity:0.98039216;stroke-width:0.75727636"
       d="M 7.061048,174.35665 V 10.784958 H 142.99215 278.92325 V 174.35665 337.92834 H 142.99215 7.061048 Z m 259.745782,0 V 22.901379 H 143.37079 19.934746 V 174.35665 325.81191 H 143.37079 266.80683 Z"
       id="path1614"
       inkscape:connector-curvature="0"
       transform="matrix(0.75000002,0,0,-0.75000002,0,262.50001)" /><path
       style="opacity:0.02000002;fill:#f9f9f9;fill-opacity:0.98039216;stroke-width:0.75727636"
       d="M 7.061048,174.35665 V 10.784958 H 142.99215 278.92325 V 174.35665 337.92834 H 142.99215 7.061048 Z m 259.745782,0 V 22.901379 H 143.37079 19.934746 V 174.35665 325.81191 H 143.37079 266.80683 Z"
       id="path1616"
       inkscape:connector-curvature="0"
       transform="matrix(0.75000002,0,0,-0.75000002,0,262.50001)" /><path
       style="opacity:0.02000002;fill:#f9f9f9;fill-opacity:0.98039216;stroke-width:0.75727636"
       d="M 7.5679619,338.18283 C 7.2891592,337.90402 7.061048,264.12545 7.061048,174.23043 V 10.784958 H 143.37251 279.68398 l -0.19105,163.761012 -0.19104,163.761 -135.61351,0.19138 C 69.100954,338.60361 7.8467645,338.46163 7.5679619,338.18283 Z M 266.80683,174.35665 V 22.901379 H 143.37079 19.934746 V 174.35665 325.81191 H 143.37079 266.80683 Z"
       id="path1618"
       inkscape:connector-curvature="0"
       transform="matrix(0.75000002,0,0,-0.75000002,0,262.50001)" /><path
       style="opacity:0.02000002;fill:#f9f9f9;fill-opacity:0.98039216;stroke-width:0.37863818"
       d="M 7.5549857,336.3106 C 7.4225146,335.34412 7.314129,261.73662 7.314129,172.73839 V 10.923418 H 143.24567 279.17721 l -0.0951,163.477032 -0.0951,163.47703 -135.59559,0.0952 -135.5955876,0.0952 z M 266.58709,325.63796 c 0.37823,-0.24015 0.45458,-30.79908 0.37863,-151.54413 L 266.87062,22.850521 143.6466,22.755281 c -98.329562,-0.076 -123.284806,4.92e-4 -123.524902,0.378638 -0.361839,0.569876 -0.421708,302.202381 -0.06005,302.564031 0.361582,0.36158 245.955642,0.30182 246.525472,-0.06 z"
       id="path1620"
       inkscape:connector-curvature="0"
       transform="matrix(0.75000002,0,0,-0.75000002,0,262.50001)" /><path
       style="opacity:0.02000002;fill:#f9f9f9;fill-opacity:0.98039216;stroke-width:0.37863818"
       d="M 7.5634473,330.62246 C 7.4263223,326.52808 7.314129,252.92082 7.314129,167.05077 V 10.923418 H 143.24658 279.17903 l -0.0802,156.282902 c -0.0441,85.9556 -0.13706,159.56286 -0.20651,163.57169 l -0.12626,7.28879 H 143.2894 7.8127656 Z m 259.0236427,-4.9845 c 0.37823,-0.24015 0.45458,-30.79908 0.37863,-151.54413 L 266.87062,22.850521 143.6466,22.755281 c -98.329562,-0.076 -123.284806,4.92e-4 -123.524902,0.378638 -0.165486,0.260631 -0.303492,68.415488 -0.306681,151.455251 l -0.0058,150.98136 117.661813,0.0959 c 64.714,0.0527 120.13243,0.13558 123.15206,0.18412 3.01964,0.0485 5.70345,-0.0471 5.96403,-0.21256 z"
       id="path1622"
       inkscape:connector-curvature="0"
       transform="matrix(0.75000002,0,0,-0.75000002,0,262.50001)" /><path
       style="opacity:0.02000002;fill:#ffffff;fill-opacity:0.98039216;stroke-width:0.37863818;stroke:#333333;stroke-opacity:0.96078432"
       d="M 7.5659437,312.22474 C 7.4277805,298.01161 7.3146009,224.40435 7.3144334,148.65305 L 7.314129,10.923418 H 143.24523 279.17633 V 61.40865 c 0,27.766874 -0.11349,101.37413 -0.25221,163.57169 L 278.67191,338.0668 H 143.24453 7.8171496 Z M 266.96572,174.21113 266.87059,22.850521 143.64657,22.755285 c -98.329562,-0.076 -123.284806,4.92e-4 -123.524902,0.378638 -0.165486,0.260631 -0.303492,68.41576 -0.306681,151.455847 l -0.0058,150.98197 H 143.43502 267.06085 Z"
       id="path1624"
       inkscape:connector-curvature="0"
       transform="matrix(0.75000002,0,0,-0.75000002,0,262.50001)" /><path
       style="opacity:0;fill:#ffffff;fill-opacity:0.98039216;stroke-width:0.75590551;stroke:#333333;stroke-opacity:0.96078432;stroke-miterlimit:4;stroke-dasharray:none"
       d="M 7.6000333,299.54036 C 7.5135074,278.35082 7.4117146,204.74356 7.373827,135.96867 L 7.3049405,10.923418 H 143.30314 279.30135 l -0.25163,39.473029 c -0.13839,21.710166 -0.25171,95.317423 -0.25182,163.571693 l -2e-4,124.09866 H 143.27753 7.7573531 Z M 266.96572,174.21113 266.87059,22.850521 143.64657,22.755285 c -98.329562,-0.076 -123.284806,4.92e-4 -123.524902,0.378638 -0.165486,0.260631 -0.303492,68.41576 -0.306681,151.455847 l -0.0058,150.98197 H 143.43502 267.06085 Z"
       id="path1628"
       inkscape:connector-curvature="0"
       transform="matrix(0.75000002,0,0,-0.75000002,0,262.50001)" /><path
       style="opacity:0.02000002;fill:#4549ff;fill-opacity:0.98039216;stroke-width:0.37863818"
       d="m 366.26311,276.42777 c -2.82933,-0.18321 -12.26488,-1.62488 -13.9452,-2.13072 -0.3478,-0.1047 -1.11391,-0.27333 -1.70248,-0.37471 -0.58856,-0.10139 -1.61088,-0.35753 -2.27183,-0.5692 -0.66094,-0.21167 -1.71288,-0.48514 -2.33763,-0.6077 -1.28175,-0.25145 -1.65161,-0.35225 -2.46115,-0.67077 -1.06026,-0.41717 -7.38034,-2.4937 -7.9514,-2.61252 -0.31237,-0.065 -0.66054,-0.24167 -0.77371,-0.3926 -0.11316,-0.15093 -0.53913,-0.33874 -0.9466,-0.41736 -0.40746,-0.0786 -1.76316,-0.61714 -3.01267,-1.19673 -1.2495,-0.57958 -2.48481,-1.05912 -2.74512,-1.06564 -0.26032,-0.007 -0.4733,-0.16389 -0.4733,-0.34973 0,-0.18583 -0.17039,-0.23257 -0.37864,-0.10386 -0.20825,0.1287 -0.37864,0.0435 -0.37864,-0.18932 0,-0.23284 -0.17038,-0.31803 -0.37863,-0.18932 -0.20825,0.1287 -0.37864,0.0435 -0.37864,-0.18932 0,-0.23283 -0.17039,-0.31803 -0.37864,-0.18932 -0.20825,0.12871 -0.37864,0.0435 -0.37864,-0.18932 0,-0.23283 -0.17039,-0.31803 -0.37864,-0.18932 -0.20825,0.12871 -0.37863,0.0435 -0.37863,-0.18932 0,-0.23283 -0.17039,-0.31802 -0.37864,-0.18932 -0.20825,0.12871 -0.37864,0.0435 -0.37864,-0.18932 0,-0.23283 -0.17039,-0.31802 -0.37864,-0.18932 -0.20825,0.12871 -0.37864,0.0795 -0.37864,-0.10946 0,-0.18892 -0.72414,-0.66452 -1.60921,-1.0569 -0.88507,-0.39238 -1.83437,-0.92942 -2.10956,-1.19342 -0.27518,-0.264 -0.74375,-0.48 -1.04125,-0.48 -0.2975,0 -0.54091,-0.16714 -0.54091,-0.37143 0,-0.20428 -0.42597,-0.47833 -0.9466,-0.609 -0.52062,-0.13067 -0.94659,-0.3895 -0.94659,-0.57517 0,-0.18568 -0.25558,-0.33759 -0.56796,-0.33759 -0.31238,0 -0.56796,-0.17039 -0.56796,-0.37864 0,-0.20825 -0.25558,-0.37864 -0.56795,-0.37864 -0.31238,0 -0.56796,-0.17039 -0.56796,-0.37864 0,-0.20825 -0.25558,-0.37864 -0.56796,-0.37864 -0.31238,0 -0.56796,-0.13365 -0.56796,-0.297 0,-0.16335 -0.55375,-0.62339 -1.23057,-1.02231 -1.47222,-0.86774 -1.16724,-0.63646 -5.39559,-4.09191 -3.98197,-3.25409 -8.898,-7.94525 -8.898,-8.49098 0,-0.48391 25.61636,-25.8548 26.10495,-25.8548 0.20033,0 1.1867,0.75762 2.19194,1.6836 13.07558,12.04467 26.45486,19.77429 39.14595,22.61581 5.1705,1.15767 15.01512,1.23633 20.02258,0.15998 12.68705,-2.72706 19.32467,-8.84369 20.26551,-18.67484 0.30648,-3.20252 -0.50271,-7.30774 -1.97788,-10.03422 -3.33554,-6.16492 -10.10384,-10.60128 -27.02484,-17.71376 -4.04521,-1.70033 -8.12166,-3.43411 -9.05879,-3.85283 -0.93713,-0.41873 -2.30022,-1.02358 -3.0291,-1.34412 -3.8488,-1.69261 -4.8784,-2.16584 -6.43685,-2.95854 -0.93713,-0.47668 -1.87426,-0.89906 -2.08251,-0.93864 -0.20825,-0.0396 -0.99649,-0.38717 -1.75165,-0.77242 -0.75516,-0.38526 -1.4793,-0.59417 -1.60921,-0.46426 -0.12991,0.12991 -0.2362,0.0274 -0.2362,-0.22789 0,-0.25525 -0.17039,-0.35878 -0.37864,-0.23007 -0.20825,0.1287 -0.37864,0.0536 -0.37864,-0.16698 0,-0.22054 -0.12779,-0.36776 -0.28398,-0.32716 -0.15619,0.0406 -2.41382,-1.01493 -5.01696,-2.34565 -2.60313,-1.33072 -4.86076,-2.38627 -5.01695,-2.34566 -0.15619,0.0406 -0.28398,-0.0707 -0.28398,-0.2473 0,-0.17662 -0.72415,-0.64217 -1.60921,-1.03455 -0.88507,-0.39238 -1.83437,-0.92942 -2.10956,-1.19342 -0.27518,-0.264 -0.74375,-0.48001 -1.04125,-0.48001 -0.2975,0 -0.54091,-0.16714 -0.54091,-0.37142 0,-0.20428 -0.42597,-0.47833 -0.9466,-0.60901 -0.52063,-0.13066 -0.9466,-0.38949 -0.9466,-0.57517 0,-0.18567 -0.25558,-0.33759 -0.56795,-0.33759 -0.31238,0 -0.56796,-0.17038 -0.56796,-0.37863 0,-0.20826 -0.25558,-0.37864 -0.56796,-0.37864 -0.31237,0 -0.56795,-0.17039 -0.56795,-0.37864 0,-0.20825 -0.18256,-0.37864 -0.40569,-0.37864 -0.22312,0 -0.64318,-0.21298 -0.93345,-0.4733 -1.2038,-1.07954 -1.67398,-1.41989 -1.96155,-1.41989 -0.16694,0 -0.51635,-0.34077 -0.77646,-0.75728 -0.26011,-0.4165 -0.65287,-0.75727 -0.8728,-0.75727 -0.21993,0 -0.83605,-0.51836 -1.36914,-1.15191 -0.5331,-0.63355 -1.03164,-1.08954 -1.10787,-1.01331 -0.19683,0.19683 -6.73487,-6.29889 -6.65946,-6.61635 0.0343,-0.14421 -0.36041,-0.5947 -0.87705,-1.00109 -0.51664,-0.40638 -0.93934,-0.93269 -0.93934,-1.16957 0,-0.23687 -0.25558,-0.52876 -0.56795,-0.64863 -0.31238,-0.11987 -0.56796,-0.4553 -0.56796,-0.74539 0,-0.2901 -0.15052,-0.52745 -0.33448,-0.52745 -0.18396,0 -0.43802,-0.29818 -0.56457,-0.66262 -0.12655,-0.36444 -0.70664,-1.42936 -1.28908,-2.36649 -1.15331,-1.85563 -3.3568,-6.93989 -3.63116,-8.37843 -0.0942,-0.49401 -0.26679,-1.15378 -0.38349,-1.46616 -0.42369,-1.13411 -0.77455,-3.85406 -1.13835,-8.82463 -0.16901,-2.30914 0.34265,-7.75447 1.1098,-11.81115 0.65202,-3.44784 3.34587,-10.51694 4.71962,-12.38507 0.41494,-0.56425 0.75443,-1.20321 0.75443,-1.41989 0,-0.21668 0.17039,-0.39397 0.37864,-0.39397 0.20825,0 0.37864,-0.25558 0.37864,-0.56796 0,-0.31237 0.17039,-0.56795 0.37864,-0.56795 0.20825,0 0.37863,-0.25558 0.37863,-0.56796 0,-0.31238 0.17574,-0.56796 0.39053,-0.56796 0.21478,0 0.49994,-0.28516 0.63369,-0.63369 0.2837,-0.73931 0.42699,-0.9003 4.62282,-5.19367 1.75225,-1.792976 3.28573,-3.261432 3.40775,-3.263239 0.12202,-0.0018 0.8182,-0.565589 1.54708,-1.252851 0.72888,-0.687261 1.879,-1.574456 2.55581,-1.971544 0.67682,-0.397087 1.23058,-0.855627 1.23058,-1.018978 0,-0.16335 0.24341,-0.297001 0.54091,-0.297001 0.2975,0 0.77214,-0.212984 1.05476,-0.473297 0.89869,-0.827751 5.44614,-3.223634 8.81687,-4.645282 0.62476,-0.263497 1.73227,-0.732681 2.46115,-1.04263 1.26654,-0.538585 2.55562,-0.954382 7.19413,-2.320489 2.77842,-0.818285 8.98389,-2.00063 12.49506,-2.380718 5.56177,-0.602067 21.81846,-0.31221 25.55807,0.455701 0.41651,0.08553 1.52402,0.247275 2.46115,0.35944 1.7369,0.207891 2.4869,0.339553 4.16502,0.731173 0.52063,0.121497 1.41662,0.296853 1.9911,0.38968 0.57447,0.09283 1.34122,0.258296 1.70387,0.367711 0.36265,0.109415 1.08534,0.282085 1.60597,0.383712 1.70121,0.33208 2.4466,0.529354 3.40774,0.90189 0.52063,0.201795 1.0786,0.374665 1.23994,0.384157 0.3769,0.02217 7.38794,2.288969 8.50999,2.751435 4.38556,1.807561 4.9844,2.072992 8.80334,3.902057 1.97838,0.947537 4.27861,2.153073 5.11162,2.67897 0.833,0.525896 1.85532,1.127968 2.27182,1.337938 0.90083,0.454128 2.19595,1.254044 2.46115,1.52009 0.10413,0.104458 0.65789,0.431427 1.23058,0.726599 0.57269,0.295176 1.04125,0.678276 1.04125,0.851336 0,0.17306 0.17783,0.31465 0.39516,0.31465 0.21735,0 0.85456,0.42597 1.41603,0.9466 0.56147,0.52063 1.15039,0.94659 1.30871,0.94659 0.15831,0 0.60267,0.29818 0.98745,0.66262 0.38478,0.36444 1.18124,1.00339 1.7699,1.41989 1.2752,0.90227 3.45712,2.77483 5.95608,5.11162 l 1.82212,1.70387 -1.54901,1.89319 c -0.85195,1.04126 -6.09686,6.71274 -11.65536,12.60331 -11.15529,11.82171 -10.67471,11.48532 -13.13546,9.19439 -3.74262,-3.48432 -11.75028,-8.64749 -18.55327,-11.96274 -19.44935,-9.47812 -38.26917,-10.26495 -49.26249,-2.0596 -3.59036,2.67981 -5.83373,7.46592 -5.82487,12.42701 0.0191,10.673 8.06648,17.76043 29.92592,26.35602 4.051,1.59294 7.70622,3.03671 8.12273,3.20838 0.4165,0.17167 1.52401,0.60851 2.46114,0.97075 3.97278,1.53563 5.196,2.02712 8.51936,3.42309 6.56477,2.75749 13.87246,6.2497 17.41736,8.32342 1.2495,0.73094 2.52741,1.44142 2.83978,1.57885 0.31238,0.13742 1.07912,0.61182 1.70388,1.05422 0.62475,0.4424 1.57862,1.02366 2.1197,1.29168 0.54109,0.26802 1.46213,0.89833 2.04675,1.40068 0.58462,0.50235 1.16424,0.91358 1.28803,0.91383 0.1238,2.5e-4 0.67444,0.38363 1.22365,0.85194 0.54921,0.46831 1.64539,1.36263 2.43596,1.98739 1.70013,1.34352 7.59815,7.19929 8.6819,8.61968 0.4165,0.54588 1.09805,1.44436 1.51455,1.99661 2.20594,2.92494 4.70809,7.97964 6.1781,12.48063 0.70526,2.15943 0.92825,3.06965 1.39139,5.67958 0.23166,1.30543 0.24619,14.5767 0.0178,16.28144 -0.49439,3.69074 -0.7617,4.85379 -1.78393,7.76208 -0.62219,1.77013 -1.16836,3.38881 -1.2137,3.59706 -0.0454,0.20825 -0.28125,0.73961 -0.52422,1.18079 -0.24297,0.44118 -0.33417,0.90975 -0.20266,1.04126 0.1315,0.1315 0.0303,0.2391 -0.22499,0.2391 -0.25525,0 -0.35879,0.17039 -0.23008,0.37864 0.12871,0.20825 0.0435,0.37864 -0.18932,0.37864 -0.23283,0 -0.31803,0.17038 -0.18932,0.37864 0.12871,0.20825 0.0435,0.37863 -0.18932,0.37863 -0.23283,0 -0.31802,0.17039 -0.18932,0.37864 0.12871,0.20825 0.0252,0.37864 -0.23008,0.37864 -0.25525,0 -0.36074,0.10335 -0.23442,0.22967 0.12632,0.12631 0.0615,0.42449 -0.14405,0.66261 -0.54123,0.62702 -2.98851,4.4415 -2.98851,4.65807 0,0.10082 -0.21298,0.40891 -0.4733,0.68464 -0.26031,0.27573 -0.89926,1.06703 -1.41989,1.75844 -1.19722,1.58996 -5.11827,5.53042 -6.7401,6.77346 -0.67927,0.52063 -1.44268,1.12654 -1.69647,1.34648 -0.25379,0.21994 -1.01519,0.72524 -1.692,1.12289 -0.67682,0.39765 -1.23058,0.83679 -1.23058,0.97585 0,0.13906 -0.29817,0.35592 -0.66261,0.48191 -0.36444,0.12599 -1.17378,0.56097 -1.79853,0.96663 -1.29132,0.83847 -8.88597,4.57523 -9.65528,4.75064 -0.95492,0.21774 -3.31566,1.13333 -3.69172,1.43181 -0.26031,0.20661 -0.4733,0.27716 -0.4733,0.15677 0,-0.12038 -0.72414,0.0421 -1.60921,0.36104 -0.88507,0.31895 -1.86479,0.6451 -2.17717,0.72476 -0.31237,0.0797 -1.49601,0.40092 -2.6303,0.7139 -1.13428,0.31298 -3.34931,0.76407 -4.92229,1.00242 -1.57298,0.23836 -3.16999,0.49302 -3.54891,0.56592 -2.76258,0.53143 -20.06909,0.95882 -25.24776,0.6235 z"
       id="path1630"
       inkscape:connector-curvature="0"
       transform="matrix(0.75000002,0,0,-0.75000002,0,262.50001)" /><path
       style="opacity:0.02000002;fill:#f9f9f9;fill-opacity:0.98039216;stroke-width:0.37863818"
       d="m 462.81585,210.0871 v -64.36849 h 19.12122 19.12123 l 0.002,6.72082 c 0.001,3.69646 0.11212,8.13194 0.24637,9.85662 l 0.2441,3.13579 1.06348,-1.2426 c 0.58491,-0.68343 1.0704,-1.37963 1.07887,-1.54711 0.008,-0.16748 0.52576,-0.84903 1.14954,-1.51455 0.6238,-0.66552 1.14919,-1.38043 1.16755,-1.58868 0.0184,-0.20825 1.82568,-1.99732 4.01629,-3.9757 2.1906,-1.97839 4.30621,-3.89524 4.70135,-4.25968 0.39514,-0.36444 0.87665,-0.66262 1.07003,-0.66262 0.19338,0 0.57675,-0.21298 0.85193,-0.47329 0.48603,-0.45976 4.76438,-2.61019 4.95097,-2.48851 0.0512,0.0334 0.519,-0.17508 1.03963,-0.4632 0.52063,-0.28813 1.07439,-0.5512 1.23058,-0.58461 0.15618,-0.0334 0.32657,-0.0947 0.37863,-0.13621 0.0521,-0.0415 0.52063,-0.14999 1.04126,-0.24106 0.52063,-0.0911 1.20218,-0.26881 1.51455,-0.39497 0.31238,-0.12616 1.32971,-0.30277 2.26075,-0.39246 0.93103,-0.0897 1.78296,-0.28266 1.89319,-0.42882 0.11022,-0.14617 0.96714,-0.28156 1.90427,-0.30087 8.5462,-0.17609 13.15409,-0.18368 13.63098,-0.0225 0.31237,0.1056 1.59028,0.32443 2.83978,0.48629 1.24951,0.16185 2.44222,0.31846 2.65047,0.34802 0.20825,0.0296 0.63422,0.14759 0.9466,0.26229 3.74982,1.37694 5.53865,1.96213 5.77423,1.88896 0.15619,-0.0485 0.28398,0.0707 0.28398,0.26493 0,0.33125 1.53033,0.99769 1.85086,0.80601 0.0808,-0.0483 0.25122,0.0716 0.37863,0.26648 0.22193,0.33949 2.98131,2.16564 3.52055,2.32989 0.51425,0.15663 6.95436,6.66304 6.84466,6.91512 -0.0618,0.14194 0.20841,0.48271 0.6004,0.75727 0.67879,0.47545 0.81451,0.70123 0.81451,1.35501 0,0.15832 0.43286,0.75468 0.96192,1.32524 0.52905,0.57056 0.86636,1.03738 0.74958,1.03738 -0.31854,0 1.35406,3.17544 1.84176,3.49661 0.23234,0.153 0.31257,0.28079 0.17828,0.28398 -0.36172,0.009 1.83881,5.49605 2.20397,5.49605 0.17161,0 0.73799,-0.84008 1.25861,-1.86685 0.52063,-1.02676 1.15009,-2.13428 1.3988,-2.46114 0.2487,-0.32687 1.21898,-1.61663 2.15618,-2.86614 2.71046,-3.6137 10.5379,-11.33898 11.01029,-10.86658 0.10109,0.10108 0.29085,-0.0952 0.4217,-0.43619 0.13085,-0.34099 0.39164,-0.52496 0.57955,-0.40884 0.18789,0.11613 0.44348,-0.0542 0.56795,-0.37863 0.12448,-0.32438 0.35305,-0.51146 0.50794,-0.41573 0.1549,0.0957 0.6056,-0.12779 1.00158,-0.4967 0.39598,-0.36891 0.80515,-0.68531 0.90928,-0.70311 0.32946,-0.0563 3.96717,-1.80985 4.16502,-2.0077 0.10413,-0.10413 0.42936,-0.24094 0.72276,-0.30402 0.29339,-0.0631 1.14532,-0.38847 1.89319,-0.72305 0.74786,-0.33459 1.48754,-0.64505 1.64373,-0.6899 0.15619,-0.0449 0.36917,-0.12416 0.4733,-0.17622 0.10412,-0.0521 0.3597,-0.13726 0.56795,-0.18932 0.20826,-0.0521 0.42124,-0.12899 0.4733,-0.17096 0.10833,-0.0873 -0.0601,-0.0496 5.20628,-1.16481 3.04652,-0.64511 5.85486,-0.89712 12.01609,-1.07828 4.42221,-0.13003 8.34112,-0.12748 8.70868,0.006 0.36755,0.13314 2.11657,0.44715 3.88671,0.6978 3.95891,0.56057 4.68128,0.67652 4.92229,0.79011 0.10413,0.0491 0.35971,0.12234 0.56796,0.16281 0.20825,0.0405 0.63422,0.17995 0.9466,0.30995 0.31237,0.12999 1.84586,0.68857 3.40774,1.24127 3.08857,1.09295 6.77715,2.85003 8.4247,4.01317 0.57269,0.4043 1.04643,0.59571 1.05277,0.42534 0.006,-0.17037 0.18719,-0.008 0.40191,0.36082 0.21472,0.36882 0.53245,0.58278 0.70609,0.47547 0.17362,-0.10731 0.41339,0.0595 0.5328,0.37067 0.11941,0.31118 0.43705,0.56579 0.70587,0.56579 0.26882,0 0.70158,0.34077 0.96169,0.75727 0.26011,0.4165 0.6146,0.75728 0.78777,0.75728 0.62522,0 5.0261,4.7295 6.7539,7.25823 0.97195,1.4225 1.93589,2.58636 2.14209,2.58636 0.2062,0 0.26812,0.1068 0.13759,0.23733 -0.30802,0.30801 0.77795,2.41314 1.24487,2.41314 0.19636,0 0.2595,0.25414 0.1403,0.56476 -0.12356,0.322 0.0434,0.66458 0.38835,0.79696 0.33279,0.1277 0.51869,0.37195 0.41311,0.54277 -0.25182,0.40746 0.59803,2.26053 1.03671,2.26053 0.18711,0 0.25127,0.14391 0.14256,0.3198 -0.16481,0.26667 0.53706,2.51724 1.55344,4.98113 0.12886,0.31238 0.20126,0.71369 0.16089,0.89179 -0.0404,0.17811 0.10149,0.53456 0.31525,0.79212 0.21374,0.25755 0.29913,0.55778 0.18973,0.66718 -0.10939,0.10939 -0.0101,1.03084 0.22071,2.04767 1.06419,4.68892 1.18186,8.96826 1.37042,49.84116 l 0.19694,42.69145 H 659.04527 639.7618 l -0.24975,-11.64312 c -0.13737,-6.40372 -0.25151,-21.52558 -0.25366,-33.60414 -0.004,-21.27592 -0.31942,-29.64643 -1.28913,-34.18709 -1.34081,-6.27832 -3.38654,-10.73393 -6.42048,-13.98387 -3.93584,-4.21604 -9.23937,-6.14442 -16.93339,-6.15704 -10.94005,-0.0179 -17.90976,4.75787 -21.58725,14.79207 -0.64235,1.75267 -1.23713,3.48485 -1.32174,3.84929 -0.0846,0.36443 -0.25248,1.04598 -0.37304,1.51455 -1.43845,5.59073 -1.67335,12.10058 -1.67368,46.38317 l -3.2e-4,33.03618 -19.4052,4e-5 -19.40521,3e-5 0.11619,-33.22553 c 0.13802,-39.46876 -0.0522,-43.09985 -2.65323,-50.64289 -2.26404,-6.5658 -5.82736,-11.07543 -10.60285,-13.41866 -3.36083,-1.64909 -6.43948,-2.2654 -11.39684,-2.28152 -15.8145,-0.0514 -23.10145,8.52166 -24.45676,28.77333 -0.23034,3.44172 -0.41896,11.44991 -0.41917,17.796 -2.1e-4,6.34608 -0.11329,20.86702 -0.25129,32.26876 l -0.2509,20.73044 h -19.05926 -19.05926 z"
       id="path1632"
       inkscape:connector-curvature="0"
       transform="matrix(0.75000002,0,0,-0.75000002,0,262.50001)" /><path
       style="opacity:0.02000002;fill:#f9f9f9;fill-opacity:0.98039216;stroke-width:0.37863818"
       d="m 731.90062,275.72912 c -0.0343,-0.0284 -1.51064,-0.16432 -3.28078,-0.30198 -7.32315,-0.56949 -14.63104,-3.08517 -20.46896,-7.04626 -2.64355,-1.79367 -7.34109,-6.7841 -9.00371,-9.56506 -1.63141,-2.72878 -3.62533,-8.04275 -4.3655,-11.63445 -0.32047,-1.55514 -0.65606,-4.87217 -0.74575,-7.37118 -0.7849,-21.86946 10.07872,-35.87781 32.1251,-41.42445 8.28009,-2.08319 15.49826,-2.61108 36.4416,-2.66515 l 8.4247,-0.0217 -0.007,-1.98785 c -0.0178,-5.3882 -2.45478,-11.51231 -5.77367,-14.50928 -3.78088,-3.41415 -7.55277,-4.54193 -14.09826,-4.2153 -7.13199,0.35589 -13.77954,2.89597 -20.14668,7.69818 -3.08162,2.32421 -3.38068,2.46689 -4.16066,1.985 -0.46219,-0.28557 -5.52101,-4.52331 -11.2418,-9.41721 l -10.40143,-8.89799 1.39291,-1.45527 c 1.8396,-1.92193 6.83861,-5.94301 9.91228,-7.9732 9.56181,-6.31564 19.42404,-10.14369 30.80506,-11.95706 4.07205,-0.64881 20.57786,-0.5259 24.66543,0.18368 10.51185,1.82478 17.87688,5.37967 24.28313,11.72077 6.61127,6.54405 10.48287,14.4893 12.71924,26.10233 0.79257,4.11565 0.8124,5.11939 0.94511,47.8419 l 0.13555,43.63804 h -19.51481 -19.51481 l -0.0127,-6.91014 -0.0127,-6.91015 -1.20529,1.51455 c -1.54277,1.93864 -3.9593,4.34369 -5.33157,5.30627 -0.5896,0.41357 -1.44154,1.06748 -1.89319,1.45313 -1.21495,1.03739 -6.1471,3.4309 -8.96192,4.34911 -5.04135,1.6445 -9.63626,2.26917 -17.98668,2.44527 -2.01317,0.0425 -3.68836,0.0539 -3.72266,0.0255 z m 26.37759,-26.42564 c 5.27798,-1.43782 8.87387,-4.195 10.8214,-8.2974 1.49458,-3.14826 1.92771,-5.85723 1.92771,-12.05662 v -5.23139 l -8.61402,3.2e-4 c -16.64722,7.5e-4 -23.30403,1.3634 -26.95141,5.51752 -1.44227,1.64267 -1.8635,2.64647 -2.34232,5.58184 -0.69643,4.2694 0.97942,9.36866 3.81099,11.59607 1.88613,1.4837 4.2056,2.59957 6.74397,3.24443 2.80677,0.71305 11.45513,0.50295 14.60368,-0.35477 z"
       id="path1634"
       inkscape:connector-curvature="0"
       transform="matrix(0.75000002,0,0,-0.75000002,0,262.50001)" /><path
       style="opacity:0;fill:#ffffff;fill-opacity:0.98039216;stroke:#333333;stroke-width:0;stroke-miterlimit:4;stroke-dasharray:none;stroke-dashoffset:0;stroke-opacity:0.96078431"
       d="M 7.8316012,337.81437 C 7.6927672,337.67554 7.5791758,264.06828 7.5791758,174.24268 V 10.923418 H 143.38274 279.1863 l -0.23472,163.202702 c -0.12909,89.76149 -0.33733,163.36875 -0.46276,163.57169 -0.25886,0.41885 -270.2386626,0.53512 -270.6572188,0.11656 z M 266.757,174.21056 V 22.660055 L 143.32096,22.755288 19.884916,22.850521 19.784371,174.30579 19.683825,325.76106 H 143.22041 266.757 Z"
       id="path2435"
       inkscape:connector-curvature="0"
       transform="matrix(0.75000002,0,0,-0.75000002,0,262.50001)" /><path
       style="opacity:0;fill:#ffffff;fill-opacity:0.98039216;stroke:#333333;stroke-width:0;stroke-miterlimit:4;stroke-dasharray:none;stroke-dashoffset:0;stroke-opacity:0.96078431"
       d="M 7.8316012,337.81437 C 7.6927672,337.67554 7.5791758,264.06828 7.5791758,174.24268 V 10.923418 H 143.38274 279.1863 l -0.23472,163.202702 c -0.12909,89.76149 -0.33733,163.36875 -0.46276,163.57169 -0.25886,0.41885 -270.2386626,0.53512 -270.6572188,0.11656 z M 266.757,174.21056 V 22.660055 L 143.32096,22.755288 19.884916,22.850521 19.784371,174.30579 19.683825,325.76106 H 143.22041 266.757 Z"
       id="path2437"
       inkscape:connector-curvature="0"
       transform="matrix(0.75000002,0,0,-0.75000002,0,262.50001)" /><path
       style="opacity:0;fill:#ffffff;fill-opacity:0.98039216;stroke:#333333;stroke-width:0;stroke-miterlimit:4;stroke-dasharray:none;stroke-dashoffset:0;stroke-opacity:0.96078431"
       d="M 7.8316012,337.81437 C 7.6927672,337.67554 7.5791758,264.06828 7.5791758,174.24268 V 10.923418 H 143.38274 279.1863 l -0.23472,163.202702 c -0.12909,89.76149 -0.33733,163.36875 -0.46276,163.57169 -0.25886,0.41885 -270.2386626,0.53512 -270.6572188,0.11656 z M 266.757,174.21056 V 22.660055 L 143.32096,22.755288 19.884916,22.850521 19.784371,174.30579 19.683825,325.76106 H 143.22041 266.757 Z"
       id="path2439"
       inkscape:connector-curvature="0"
       transform="matrix(0.75000002,0,0,-0.75000002,0,262.50001)" /><path
       style="opacity:0;fill:#ffffff;fill-opacity:0.98039216;stroke:#333333;stroke-width:0;stroke-miterlimit:4;stroke-dasharray:none;stroke-dashoffset:0;stroke-opacity:0.96078431"
       d="M 7.8316012,337.81437 C 7.6927672,337.67554 7.5791758,264.06828 7.5791758,174.24268 V 10.923418 H 143.38274 279.1863 l -0.23472,163.202702 c -0.12909,89.76149 -0.33733,163.36875 -0.46276,163.57169 -0.25886,0.41885 -270.2386626,0.53512 -270.6572188,0.11656 z M 266.757,174.21056 V 22.660055 L 143.32096,22.755288 19.884916,22.850521 19.784371,174.30579 19.683825,325.76106 H 143.22041 266.757 Z"
       id="path2441"
       inkscape:connector-curvature="0"
       transform="matrix(0.75000002,0,0,-0.75000002,0,262.50001)" /><path
       style="opacity:0;fill:#ffffff;fill-opacity:0.98039216;stroke:#333333;stroke-width:0;stroke-miterlimit:4;stroke-dasharray:none;stroke-dashoffset:0;stroke-opacity:0.96078431"
       d="M 20.074235,174.49511 V 23.418478 H 143.32096 266.56768 V 174.49511 325.57174 H 143.32096 20.074235 Z m 156.766385,103.09157 62.08309,-35.8833 0.002,-38.36866 c 7.6e-4,-21.40117 -0.14298,-38.31286 -0.32547,-38.24246 -0.17977,0.0694 -43.21041,24.91755 -95.62347,55.21807 -89.639421,51.82145 -95.248316,55.12412 -94.485285,55.6355 3.473024,2.3276 65.404145,37.80326 65.781365,37.68117 0.26685,-0.0864 28.42257,-16.30451 62.56826,-36.04032 z M 103.28413,174.009 l -0.0988,-15.63163 -27.517056,15.91561 c -15.134383,8.75359 -27.610636,16.0104 -27.725006,16.12624 -0.11437,0.11585 12.268307,7.02975 27.517058,15.36422 l 27.725004,15.15359 0.0988,-15.6482 c 0.0543,-8.60651 0.0543,-22.68243 0,-31.27983 z m 108.04216,0.42433 c 15.19579,-8.78053 27.49463,-16.08771 27.33077,-16.23819 -0.23094,-0.21209 -50.78423,-27.88336 -54.53784,-29.8523 l -0.85193,-0.44687 v 31.25097 c 0,17.18803 0.0968,31.25097 0.21515,31.25097 0.11834,0 12.64807,-7.18406 27.84385,-15.96458 z m -65.78305,-46.88936 c 51.35052,-29.675762 93.3613,-54.041128 93.35728,-54.145254 -0.0128,-0.331346 -65.62404,-38.010513 -66.22615,-38.03228 -0.3173,-0.01147 -28.563,16.152474 -62.76823,35.919877 L 47.714822,107.22705 v 38.40153 38.40154 l 2.231913,-1.2651 c 1.227552,-0.69581 44.245979,-25.54528 95.596505,-55.22105 z"
       id="path2443"
       inkscape:connector-curvature="0"
       transform="matrix(0.75000002,0,0,-0.75000002,0,262.50001)" /><path
       style="opacity:0;fill:#ffffff;fill-opacity:0.98039216;stroke:#333333;stroke-width:0;stroke-miterlimit:4;stroke-dasharray:none;stroke-dashoffset:0;stroke-opacity:0.96078431"
       d="M 81.946048,294.96697 C 64.433425,284.83109 49.72259,276.28009 49.255304,275.96476 48.328742,275.3395 34.604246,283.36808 203.05294,185.99592 l 35.49913,-20.52035 -0.0965,38.07364 -0.0965,38.07364 -62.09666,35.90826 c -34.15316,19.74954 -62.18185,35.89847 -62.28598,35.8865 -0.10412,-0.012 -14.517827,-8.31476 -32.030452,-18.45064 z"
       id="path2445"
       inkscape:connector-curvature="0"
       transform="matrix(0.75000002,0,0,-0.75000002,0,262.50001)" /><path
       style="opacity:0;fill:#ffffff;fill-opacity:0.98039216;stroke:#333333;stroke-width:0;stroke-miterlimit:4;stroke-dasharray:none;stroke-dashoffset:0;stroke-opacity:0.96078431"
       d="m 48.1863,145.25184 0.09648,-37.95195 62.08588,-35.890816 c 34.14724,-19.739949 62.30576,-35.806445 62.57449,-35.703323 0.94442,0.36241 65.2084,37.505891 65.21467,37.692965 0.007,0.20178 -189.502094,109.805074 -189.857742,109.805074 -0.115641,0 -0.166841,-17.07838 -0.113777,-37.95195 z"
       id="path2447"
       inkscape:connector-curvature="0"
       transform="matrix(0.75000002,0,0,-0.75000002,0,262.50001)" /><path
       style="opacity:0;fill:#ffffff;fill-opacity:0.98039216;stroke:#333333;stroke-width:0;stroke-miterlimit:4;stroke-dasharray:none;stroke-dashoffset:0;stroke-opacity:0.96078431"
       d="m 367.53781,276.49131 c -0.0347,-0.0258 -1.34096,-0.15474 -2.90284,-0.28667 -1.56188,-0.13195 -3.18056,-0.30498 -3.59706,-0.38453 -0.4165,-0.0796 -1.52402,-0.24901 -2.46115,-0.37658 -1.88149,-0.2561 -2.35071,-0.34633 -5.11162,-0.98295 -1.04125,-0.2401 -2.31916,-0.49477 -2.83978,-0.56594 -0.52063,-0.0712 -1.43879,-0.31961 -2.04037,-0.55209 -0.60157,-0.23249 -1.18224,-0.33422 -1.29039,-0.22608 -0.10815,0.10815 -0.42941,0.003 -0.71392,-0.23268 -0.2845,-0.23612 -0.62528,-0.32131 -0.75727,-0.18932 -0.132,0.132 -0.4303,0.082 -0.6629,-0.11099 -0.23261,-0.19305 -0.84464,-0.40887 -1.36008,-0.47961 -0.51544,-0.0707 -1.10754,-0.22927 -1.31579,-0.35231 -0.43114,-0.25471 -5.28006,-1.86938 -5.97771,-1.99054 -0.25253,-0.0438 -1.01791,-0.37558 -1.70084,-0.73716 -0.68293,-0.36159 -1.40707,-0.55522 -1.60921,-0.4303 -0.20213,0.12493 -0.36752,0.0634 -0.36752,-0.1368 0,-0.20017 -0.51116,-0.54213 -1.13591,-0.75993 -0.62475,-0.21779 -1.13592,-0.31293 -1.13592,-0.21143 0,0.10151 -0.21298,0.007 -0.47329,-0.20931 -0.62301,-0.51846 -8.94583,-4.61896 -9.08902,-4.47799 -0.0609,0.06 -0.52223,-0.27435 -1.02518,-0.74292 -0.50294,-0.46856 -1.0527,-0.85193 -1.22169,-0.85193 -0.64304,0 -0.88921,-0.13257 -1.33645,-0.71971 -0.25369,-0.33303 -0.46928,-0.43514 -0.4791,-0.22689 -0.0108,0.22944 -0.12745,0.21824 -0.29602,-0.0284 -0.31753,-0.46467 -4.84635,-3.56867 -5.20674,-3.56867 -0.13043,0 -0.45968,-0.21298 -0.73166,-0.4733 -0.27199,-0.26031 -0.87123,-0.72888 -1.33165,-1.04125 -0.46042,-0.31238 -1.24159,-0.90873 -1.73594,-1.32524 -0.49434,-0.4165 -1.52837,-1.26843 -2.29782,-1.89319 -0.76946,-0.62475 -3.03354,-2.70439 -5.03128,-4.62141 l -3.63227,-3.4855 13.07074,-13.07323 13.07075,-13.07323 3.16849,2.73843 c 9.5385,8.24386 16.37691,13.01023 24.078,16.78231 9.35867,4.58399 17.37527,6.44453 26.31535,6.10743 10.15885,-0.38306 17.52188,-2.84772 22.55445,-7.54974 5.86834,-5.48291 7.49302,-14.09217 4.04774,-21.44913 -0.5234,-1.11764 -2.03532,-3.18085 -3.35984,-4.5849 -4.05255,-4.29592 -9.46706,-7.50651 -20.7812,-12.32244 -9.44118,-4.01869 -9.30064,-3.9569 -10.8755,-4.78151 -0.77525,-0.40593 -1.54199,-0.75282 -1.70387,-0.77088 -0.49467,-0.0552 -2.10792,-0.73874 -3.70207,-1.5686 -0.833,-0.43364 -1.51455,-0.72839 -1.51455,-0.65502 0,0.0734 -0.70305,-0.22525 -1.56233,-0.66362 -0.85928,-0.43837 -1.66862,-0.69075 -1.79853,-0.56084 -0.12991,0.12991 -0.23621,0.0716 -0.23621,-0.12948 0,-0.36948 -2.59851,-1.49409 -3.12376,-1.35194 -0.15619,0.0423 -0.28398,-0.0704 -0.28398,-0.25034 0,-0.34534 -3.39507,-1.78635 -3.88104,-1.64726 -0.15619,0.0447 -0.28398,-0.0992 -0.28398,-0.31972 0,-0.22054 -0.15584,-0.30467 -0.3463,-0.18696 -0.19046,0.11772 -0.40344,0.0631 -0.4733,-0.12135 -0.18864,-0.49816 -7.00419,-3.83576 -7.27658,-3.56337 -0.12862,0.12862 -0.23386,0.025 -0.23386,-0.23023 0,-0.25525 -0.17039,-0.35879 -0.37864,-0.23008 -0.20825,0.12871 -0.37863,0.0923 -0.37863,-0.0809 0,-0.3556 -2.45644,-1.75796 -2.86723,-1.63688 -0.14659,0.0432 -0.37078,-0.0809 -0.49819,-0.27582 -0.35665,-0.54559 -3.44931,-2.40836 -3.45587,-2.08154 -0.003,0.1588 -0.13098,0.11834 -0.28398,-0.0899 -0.42139,-0.57356 -3.75762,-2.83979 -4.18061,-2.83979 -0.20399,0 -0.47832,-0.27997 -0.60963,-0.62215 -0.13131,-0.34218 -0.34108,-0.51981 -0.46615,-0.39474 -0.12508,0.12508 -0.54137,-0.14871 -0.92509,-0.60842 -0.38372,-0.45971 -0.70334,-0.68507 -0.71027,-0.50079 -0.007,0.18427 -0.3728,-0.12288 -0.81304,-0.68256 -0.44024,-0.55968 -0.87284,-0.94521 -0.96132,-0.85672 -0.23978,0.23978 -9.871,-9.35297 -9.70799,-9.66923 0.077,-0.14937 -0.20739,-0.48854 -0.63198,-0.7537 -0.42458,-0.26515 -0.77197,-0.69669 -0.77197,-0.95898 0,-0.26228 -0.17038,-0.47687 -0.37863,-0.47687 -0.20825,0 -0.37864,-0.25558 -0.37864,-0.56796 0,-0.31238 -0.17039,-0.56796 -0.37864,-0.56796 -0.20825,0 -0.37864,-0.24341 -0.37864,-0.54091 0,-0.2975 -0.21298,-0.77197 -0.4733,-1.05437 -0.97311,-1.05569 -3.77618,-7.411 -4.2647,-9.6692 -0.10136,-0.46857 -0.27199,-1.23531 -0.37917,-1.70387 -0.55179,-2.41228 -0.66989,-3.97567 -0.69362,-9.18198 -0.0239,-5.24349 0.15957,-7.8345 0.65693,-9.27691 0.10766,-0.31222 0.28229,-1.07884 0.38807,-1.7036 0.3112,-1.83789 0.99023,-4.44517 1.27335,-4.88929 0.14433,-0.2264 0.27975,-0.49683 0.30092,-0.60096 0.27845,-1.36924 3.12794,-6.80829 4.87957,-9.31401 0.94583,-1.35303 1.7197,-2.53708 1.7197,-2.63123 0,-0.36355 9.0349,-9.184701 9.21884,-9.000754 0.10705,0.107051 0.41782,-0.162729 0.69059,-0.59951 0.27278,-0.436782 0.71055,-0.794148 0.97283,-0.794148 0.26229,0 0.47688,-0.170387 0.47688,-0.378638 0,-0.208251 0.22345,-0.378638 0.49656,-0.378638 0.27311,0 0.86615,-0.344328 1.31788,-0.765173 0.45172,-0.420845 0.86722,-0.729473 0.92333,-0.685841 0.17261,0.134229 3.88029,-2.098788 4.0154,-2.418349 0.0698,-0.165206 0.28283,-0.204064 0.4733,-0.08635 0.19046,0.117714 0.34629,0.0052 0.34629,-0.250066 0,-0.25525 0.11024,-0.353855 0.24497,-0.219122 0.20641,0.206407 1.71224,-0.455686 5.52413,-2.428884 0.36161,-0.187187 0.81908,-0.340339 1.0166,-0.340339 0.19752,0 0.83879,-0.198707 1.42504,-0.44157 0.58624,-0.242864 1.19369,-0.477146 1.34988,-0.520628 0.15619,-0.04348 0.32657,-0.113392 0.37864,-0.155357 0.0521,-0.04196 0.35024,-0.129159 0.66261,-0.193764 0.31238,-0.06461 1.59028,-0.426245 2.83979,-0.803645 1.24951,-0.3774 2.35702,-0.702562 2.46115,-0.722583 0.48991,-0.0942 3.26132,-0.70294 3.59706,-0.790099 0.20825,-0.05406 1.03918,-0.211029 1.84651,-0.348815 0.80733,-0.137787 1.82361,-0.319029 2.2584,-0.402761 2.57777,-0.496435 6.69912,-0.693627 14.06972,-0.673188 8.94835,0.02481 11.89221,0.233812 17.98532,1.276865 1.35363,0.231723 2.92492,0.481454 3.49177,0.554958 0.56684,0.07351 1.18215,0.227299 1.36736,0.341765 0.18521,0.114466 0.91414,0.289486 1.61985,0.388934 1.1988,0.168935 1.62517,0.258693 3.83891,0.808151 0.46856,0.1163 1.02232,0.248882 1.23057,0.294626 0.20825,0.04574 0.54902,0.186134 0.75728,0.311976 0.4988,0.301418 2.78868,0.788449 2.9646,0.630537 0.0756,-0.06785 0.4192,0.110487 0.76358,0.3963 0.34439,0.285813 0.62615,0.392741 0.62615,0.237617 0,-0.155124 0.25559,-0.06993 0.56796,0.189319 0.31238,0.259249 0.56796,0.344443 0.56796,0.189319 0,-0.155124 0.21298,-0.112999 0.4733,0.09361 0.38913,0.308853 2.99273,1.309053 3.69172,1.418211 0.10412,0.01626 0.53009,0.219709 0.94659,0.452107 0.41651,0.232398 0.88686,0.435892 1.04523,0.452209 0.15837,0.01632 0.79554,0.292152 1.41592,0.612967 0.62039,0.320816 1.21848,0.572833 1.32908,0.560039 0.30447,-0.03522 7.87726,3.732887 8.429,4.194153 0.26479,0.221372 0.98894,0.579409 1.60921,0.795637 0.62028,0.216229 1.12777,0.546863 1.12777,0.734741 0,0.187879 0.25558,0.341598 0.56796,0.341598 0.31238,0 0.56796,0.167141 0.56796,0.371425 0,0.204283 0.42596,0.478335 0.94659,0.609004 0.52063,0.130669 0.9466,0.389496 0.9466,0.575171 0,0.185675 0.23735,0.337591 0.52744,0.337591 0.2901,0 0.63489,0.279972 0.76619,0.622152 0.13131,0.34218 0.33045,0.53045 0.44252,0.41837 0.11208,-0.11207 0.64411,0.20432 1.18229,0.70309 0.53819,0.49877 1.11454,0.90686 1.28079,0.90686 0.16626,0 0.95072,0.59554 1.74325,1.32342 0.79253,0.72788 1.57962,1.32424 1.74909,1.32523 0.31859,0.002 0.61116,0.25583 4.89472,4.24877 l 2.55238,2.37921 -1.22714,1.65359 c -0.67494,0.90947 -2.94525,3.46528 -5.04516,5.67957 -2.09989,2.21429 -5.74227,6.07063 -8.09416,8.56964 -6.42998,6.83222 -8.66069,8.89883 -9.59766,8.89161 -0.4564,-0.003 -2.10773,-1.0393 -3.66961,-2.30175 -10.15356,-8.20696 -24.46818,-15.06028 -36.45494,-17.45331 -5.99928,-1.1977 -14.9171,-1.20109 -19.69761,-0.007 -4.84806,1.21046 -8.58353,3.06218 -11.18714,5.5456 -2.68067,2.55693 -4.07801,5.27504 -4.67028,9.08469 -0.84943,5.46375 0.73856,10.24175 4.85371,14.60403 5.04502,5.34798 12.76073,9.62836 27.39925,15.20003 3.22789,1.22859 6.20967,2.38324 6.62617,2.56588 0.4165,0.18265 1.41784,0.62329 2.22519,0.9792 0.80735,0.35591 1.65928,0.67966 1.89319,0.71943 0.2339,0.0398 0.80865,0.28311 1.27721,0.54073 0.46857,0.25763 0.85194,0.37329 0.85194,0.25704 0,-0.11625 0.41698,0.0618 0.92663,0.39578 0.50965,0.33394 1.0226,0.58999 1.13988,0.56902 0.11729,-0.021 0.72084,0.22434 1.34123,0.54516 0.62039,0.32082 1.21674,0.5764 1.32524,0.56796 0.10849,-0.008 0.70484,0.24714 1.32523,0.56795 0.62039,0.32082 1.17236,0.55466 1.2266,0.51965 0.0542,-0.035 0.78018,0.28404 1.61318,0.709 0.83301,0.42497 1.64712,0.78153 1.80914,0.79235 0.52322,0.035 9.16707,4.40616 9.29837,4.70219 0.0698,0.15749 0.28284,0.19003 0.4733,0.0723 0.19046,-0.11771 0.3463,-0.0542 0.3463,0.14103 0,0.19528 0.55376,0.58151 1.23057,0.85829 0.67682,0.27678 1.45573,0.72342 1.73092,0.99253 0.27519,0.26911 0.72955,0.48929 1.0097,0.48929 0.28015,0 0.56615,0.13322 0.63557,0.29604 0.12624,0.2961 4.80107,3.49034 5.10818,3.49034 0.0895,0 0.62209,0.42597 1.18356,0.9466 0.56147,0.52062 1.17506,0.94659 1.36352,0.94659 0.38472,0 0.36138,-0.0217 6.10193,5.68523 4.80103,4.77295 5.49025,5.53276 5.49025,6.05255 0,0.20826 0.14972,0.37864 0.3327,0.37864 0.18299,0 0.54444,0.51116 0.80322,1.13592 0.25878,0.62475 0.586,1.13591 0.72714,1.13591 0.14116,0 0.47229,0.59636 0.73585,1.32524 0.26357,0.72887 0.64863,1.32523 0.85569,1.32523 0.20706,0 0.27117,0.17039 0.14246,0.37864 -0.1287,0.20825 -0.0435,0.37864 0.18932,0.37864 0.23284,0 0.31803,0.17038 0.18932,0.37863 -0.1287,0.20825 -0.0435,0.37864 0.18932,0.37864 0.23283,0 0.31803,0.17039 0.18932,0.37864 -0.12871,0.20825 -0.0252,0.37864 0.23008,0.37864 0.25525,0 0.3565,0.1076 0.22499,0.2391 -0.13151,0.13151 -0.0381,0.60007 0.20745,1.04126 0.24561,0.44118 0.46338,0.88734 0.48394,0.99147 0.0206,0.10412 0.39969,1.32411 0.84252,2.71107 1.16051,3.63481 1.70629,6.94958 1.63158,9.90933 -0.04,1.58478 0.11541,2.80423 0.4013,3.14869 0.35549,0.42835 0.3659,0.84926 0.0437,1.76785 -0.23256,0.66311 -0.46478,2.82432 -0.51603,4.80271 -0.0512,1.97838 -0.30863,4.449 -0.57196,5.49025 -0.26332,1.04126 -0.55555,2.31916 -0.64938,2.83979 -0.0938,0.52063 -0.60583,2.09671 -1.13778,3.5024 -0.53195,1.4057 -0.84703,2.55842 -0.70017,2.56161 0.14685,0.003 0.0966,0.13098 -0.11163,0.28398 -0.40098,0.29459 -2.72685,4.96516 -2.75723,5.53678 -0.01,0.18496 -0.17147,0.44055 -0.35919,0.56796 -0.39147,0.2657 -2.75247,3.67482 -2.75247,3.97438 0,0.3753 -7.43927,7.98852 -8.92234,9.13097 -0.54068,0.4165 -1.21279,0.97026 -1.49357,1.23057 -0.28078,0.26031 -0.66666,0.4733 -0.85751,0.4733 -0.19085,0 -0.65539,0.34077 -1.03232,0.75727 -0.37693,0.41651 -0.9145,0.75728 -1.1946,0.75728 -0.2801,0 -0.50927,0.17039 -0.50927,0.37864 0,0.20825 -0.14136,0.37864 -0.31413,0.37864 -0.17276,0 -2.17481,0.97408 -4.449,2.16464 -2.27418,1.19055 -4.30526,2.19212 -4.51351,2.22572 -0.20825,0.0336 -1.06019,0.3646 -1.89319,0.73557 -0.833,0.37098 -1.64234,0.71121 -1.79853,0.75606 -0.15619,0.0449 -0.36917,0.12415 -0.4733,0.17622 -0.10413,0.0521 -0.35971,0.13725 -0.56796,0.18932 -0.20825,0.0521 -0.46383,0.13725 -0.56795,0.18932 -0.10413,0.0521 -0.35971,0.13725 -0.56796,0.18931 -0.20825,0.0521 -0.42124,0.129 -0.4733,0.17096 -0.0521,0.042 -0.35024,0.13027 -0.66262,0.19624 -0.31237,0.066 -1.93105,0.48535 -3.59706,0.93197 -1.66601,0.44662 -3.45507,0.89427 -3.9757,0.99478 -0.52063,0.1005 -1.45776,0.29541 -2.08251,0.43313 -0.62475,0.13772 -1.3063,0.28146 -1.51455,0.31944 -0.87913,0.16029 -5.05194,0.64563 -6.62617,0.77068 -1.60226,0.12727 -19.6795,0.40191 -19.81545,0.30104 z"
       id="path2449"
       inkscape:connector-curvature="0"
       transform="matrix(0.75000002,0,0,-0.75000002,0,262.50001)" /><path
       style="opacity:0;fill:#ffffff;fill-opacity:0.98039216;stroke:#333333;stroke-width:0;stroke-miterlimit:4;stroke-dasharray:none;stroke-dashoffset:0;stroke-opacity:0.96078431"
       d="m 462.70226,210.09382 v -64.36177 l 19.51107,-0.10138 19.51108,-0.10138 -0.0353,9.78893 c -0.0194,5.38391 0.0607,9.88497 0.17811,10.00236 0.11739,0.11738 0.21343,0.0411 0.21343,-0.16943 0,-0.21057 0.42576,-0.87792 0.94613,-1.483 0.52037,-0.60508 0.94634,-1.21151 0.9466,-1.34763 2.5e-4,-0.13611 0.55422,-0.87296 1.23103,-1.63744 0.67682,-0.76447 1.23058,-1.51194 1.23058,-1.66104 0,-0.1491 1.57608,-1.68582 3.5024,-3.41493 1.92632,-1.72911 3.5024,-3.29829 3.5024,-3.48706 0,-0.18878 0.12779,-0.30586 0.28398,-0.26019 0.24529,0.0717 3.34736,-1.80765 3.88104,-2.35133 0.18304,-0.18646 3.02375,-1.60811 3.40775,-1.70543 0.10412,-0.0264 1.62877,-0.51408 3.38811,-1.08376 1.75934,-0.56968 3.93178,-1.13625 4.82764,-1.25905 0.89587,-0.12279 1.62885,-0.33907 1.62885,-0.48061 0,-0.14155 4.08929,-0.26874 9.08731,-0.28264 5.53102,-0.0154 9.08732,0.11607 9.08732,0.33592 0,0.19866 0.38337,0.32368 0.85193,0.27781 0.46857,-0.0459 1.12628,0.0362 1.46159,0.1824 0.3353,0.14619 1.01685,0.31978 1.51455,0.38575 0.4977,0.066 1.33087,0.29246 1.8515,0.50331 0.52063,0.21086 1.07439,0.30813 1.23057,0.21617 0.15619,-0.092 0.28398,0.0132 0.28398,0.23378 0,0.22054 0.2211,0.40098 0.49132,0.40098 0.27023,0 1.63333,0.58483 3.02911,1.29962 1.39578,0.71479 2.53778,1.19339 2.53778,1.06355 0,-0.12985 0.25017,0.0947 0.55592,0.49891 0.30575,0.40424 0.56133,0.57463 0.56796,0.37863 0.007,-0.19599 0.2622,-0.0256 0.56796,0.37864 0.30575,0.40424 0.56133,0.63379 0.56795,0.51011 0.0172,-0.32004 4.78109,4.38633 6.93979,6.85589 0.99887,1.14272 1.79431,2.16286 1.76764,2.26699 -0.0882,0.34446 1.70051,3.0291 2.01821,3.0291 0.17138,0 0.2063,0.17039 0.0776,0.37864 -0.12871,0.20825 -0.0435,0.37864 0.18932,0.37864 0.23283,0 0.31803,0.17038 0.18932,0.37864 -0.12871,0.20825 -0.0536,0.37863 0.16697,0.37863 0.22054,0 0.37304,0.12779 0.33887,0.28398 -0.11106,0.5078 0.51518,2.36649 0.79733,2.36649 0.15097,0 0.27449,0.21812 0.27449,0.48472 0,0.26659 0.3086,1.29279 0.68579,2.28043 0.65345,1.71104 0.71664,1.76407 1.33992,1.1245 0.35977,-0.36918 0.58067,-0.79902 0.49088,-0.9552 -0.0898,-0.15619 0.0273,-0.28398 0.26009,-0.28398 0.23283,0 0.32702,-0.15584 0.20931,-0.3463 -0.11772,-0.19047 -0.0852,-0.40345 0.0723,-0.4733 0.15748,-0.0699 1.13302,-1.39044 2.16786,-2.93464 2.47556,-3.69408 7.15894,-8.60344 11.17026,-11.70924 1.77631,-1.37533 3.3339,-2.64772 3.46131,-2.82753 0.12741,-0.17982 0.38299,-0.31099 0.56795,-0.2915 0.18497,0.0195 0.62009,-0.20754 0.96693,-0.50452 0.34684,-0.29697 0.73021,-0.44035 0.85193,-0.31863 0.12173,0.12173 0.22132,0.0125 0.22132,-0.24277 0,-0.25525 0.17039,-0.35878 0.37864,-0.23008 0.20825,0.12871 0.37864,0.0435 0.37864,-0.18932 0,-0.23283 0.17039,-0.31802 0.37864,-0.18931 0.20825,0.1287 0.37864,0.0435 0.37864,-0.18932 0,-0.23284 0.17038,-0.31803 0.37863,-0.18932 0.20825,0.1287 0.37864,0.0252 0.37864,-0.23008 0,-0.25525 0.1068,-0.3573 0.23732,-0.22677 0.13054,0.13053 0.76949,-0.0448 1.4199,-0.38953 0.65041,-0.34477 1.35296,-0.66183 1.56121,-0.70458 0.20825,-0.0427 0.8046,-0.24461 1.32523,-0.44859 0.52063,-0.20399 1.11698,-0.41312 1.32523,-0.46476 0.20825,-0.0516 1.19922,-0.33756 2.20214,-0.6354 4.7219,-1.40225 8.02575,-1.75073 17.48705,-1.84448 6.01999,-0.0597 9.63752,0.0469 9.93723,0.29271 0.25921,0.21259 0.8128,0.29721 1.2302,0.18805 0.4174,-0.10915 0.85937,-0.0359 0.98215,0.16275 0.12279,0.19867 0.50633,0.32687 0.85232,0.2849 0.34599,-0.042 0.88465,0.0125 1.19703,0.12096 2.18021,0.75724 4.71667,1.37144 4.98324,1.20668 0.17473,-0.10799 0.31769,-0.0294 0.31769,0.17456 0,0.35058 2.13567,1.03664 2.74513,0.88184 0.15619,-0.0397 0.28398,0.0798 0.28398,0.26546 0,0.32931 1.80095,0.98412 2.36649,0.86043 0.15619,-0.0342 0.28398,0.11833 0.28398,0.33887 0,0.22055 0.17038,0.29568 0.37863,0.16698 0.20826,-0.12871 0.37864,-0.0435 0.37864,0.18932 0,0.23283 0.17039,0.31802 0.37864,0.18932 0.20825,-0.12871 0.37864,-0.0435 0.37864,0.18931 0,0.23284 0.15584,0.32702 0.3463,0.20931 0.19046,-0.11771 0.40344,-0.0711 0.4733,0.1037 0.13571,0.33953 4.34476,3.09706 4.6933,3.07479 0.11424,-0.007 0.53358,0.37757 0.93187,0.85527 0.39829,0.4777 0.72983,0.77174 0.73676,0.65341 0.0187,-0.31864 6.07081,5.79392 6.07081,6.1314 0,0.15858 0.37868,0.55357 0.84152,0.87776 0.46284,0.32418 0.72054,0.58942 0.57266,0.58942 -0.14787,0 0.30233,0.89454 1.00047,1.98785 1.61964,2.53648 3.2791,5.86366 4.48516,8.99266 0.52175,1.35363 1.08387,2.80192 1.24915,3.21843 0.16528,0.4165 0.26912,0.95741 0.23075,1.20202 -0.0384,0.24461 0.0977,0.54824 0.30239,0.67474 0.20467,0.1265 0.28277,0.46289 0.17354,0.74753 -0.10922,0.28464 -0.0326,0.62013 0.17031,0.74553 0.2029,0.12539 0.28486,0.54937 0.18215,0.94216 -0.10272,0.39279 -0.009,0.82405 0.20833,0.95834 0.21729,0.1343 0.2991,0.49431 0.18179,0.80001 -0.11731,0.30571 -0.0891,0.85401 0.0628,1.21845 0.32957,0.79102 0.38511,1.61662 0.48548,7.21647 0.0562,3.13403 0.19439,4.20932 0.51555,4.01083 0.32446,-0.20053 0.37379,0.35075 0.18932,2.11571 -0.13722,1.31279 -0.24949,19.14504 -0.24949,39.62722 v 37.24031 h -19.31054 -19.31055 l -0.0267,-19.97316 c -0.0281,-21.02272 -0.53752,-52.86483 -0.89194,-55.75447 -1.99438,-16.26046 -9.64534,-23.83848 -24.07149,-23.84203 -2.23699,-5.7e-4 -5.04329,0.25065 -6.41682,0.5744 -7.49018,1.76544 -12.77922,6.99289 -15.49668,15.31623 -0.44194,1.35363 -0.77502,2.54634 -0.74018,2.65047 0.0348,0.10412 -0.12329,0.53806 -0.3514,0.9643 -0.22812,0.42624 -0.52732,1.61895 -0.66489,2.65047 -0.13758,1.03151 -0.31314,2.30145 -0.39016,2.82207 -0.69721,4.71344 -0.92711,15.33144 -0.92845,42.88078 l -0.002,31.71094 H 570.19201 550.8384 l 0.26383,-28.11388 c 0.27881,-29.70983 -0.0978,-45.56401 -1.18497,-49.88558 -0.13097,-0.52063 -0.28341,-1.20217 -0.33876,-1.51455 -0.17365,-0.98001 -0.46987,-2.00483 -1.31332,-4.54366 -3.47841,-10.47013 -10.68676,-15.52416 -22.14145,-15.52416 -11.92759,0 -19.00184,5.17232 -22.26833,16.28144 -1.224,4.16274 -1.32499,4.64791 -1.57721,7.57714 -0.11635,1.35122 -0.32007,3.22351 -0.4527,4.16064 -0.13263,0.93713 -0.24497,17.46469 -0.24963,36.7279 -0.005,19.26322 -0.11304,32.46823 -0.24082,29.34446 l -0.23233,-5.67957 -0.0792,5.58491 -0.0792,5.58491 h -19.12123 -19.12122 z"
       id="path2451"
       inkscape:connector-curvature="0"
       transform="matrix(0.75000002,0,0,-0.75000002,0,262.50001)" /><path
       style="opacity:0;fill:#ffffff;fill-opacity:0.98039216;stroke:#333333;stroke-width:0;stroke-miterlimit:4;stroke-dasharray:none;stroke-dashoffset:0;stroke-opacity:0.96078431"
       d="m 462.70226,210.09382 v -64.36177 l 19.51107,-0.10138 19.51108,-0.10138 -0.0353,9.78893 c -0.0194,5.38391 0.0607,9.88497 0.17811,10.00236 0.11739,0.11738 0.21343,0.0411 0.21343,-0.16943 0,-0.21057 0.42576,-0.87792 0.94613,-1.483 0.52037,-0.60508 0.94634,-1.21151 0.9466,-1.34763 2.5e-4,-0.13611 0.55422,-0.87296 1.23103,-1.63744 0.67682,-0.76447 1.23058,-1.51194 1.23058,-1.66104 0,-0.1491 1.57608,-1.68582 3.5024,-3.41493 1.92632,-1.72911 3.5024,-3.29829 3.5024,-3.48706 0,-0.18878 0.12779,-0.30586 0.28398,-0.26019 0.24529,0.0717 3.34736,-1.80765 3.88104,-2.35133 0.18304,-0.18646 3.02375,-1.60811 3.40775,-1.70543 0.10412,-0.0264 1.62877,-0.51408 3.38811,-1.08376 1.75934,-0.56968 3.93178,-1.13625 4.82764,-1.25905 0.89587,-0.12279 1.62885,-0.33907 1.62885,-0.48061 0,-0.14155 4.08929,-0.26874 9.08731,-0.28264 5.53102,-0.0154 9.08732,0.11607 9.08732,0.33592 0,0.19866 0.38337,0.32368 0.85193,0.27781 0.46857,-0.0459 1.12628,0.0362 1.46159,0.1824 0.3353,0.14619 1.01685,0.31978 1.51455,0.38575 0.4977,0.066 1.33087,0.29246 1.8515,0.50331 0.52063,0.21086 1.07439,0.30813 1.23057,0.21617 0.15619,-0.092 0.28398,0.0132 0.28398,0.23378 0,0.22054 0.2211,0.40098 0.49132,0.40098 0.27023,0 1.63333,0.58483 3.02911,1.29962 1.39578,0.71479 2.53778,1.19339 2.53778,1.06355 0,-0.12985 0.25017,0.0947 0.55592,0.49891 0.30575,0.40424 0.56133,0.57463 0.56796,0.37863 0.007,-0.19599 0.2622,-0.0256 0.56796,0.37864 0.30575,0.40424 0.56133,0.63379 0.56795,0.51011 0.0172,-0.32004 4.78109,4.38633 6.93979,6.85589 0.99887,1.14272 1.79431,2.16286 1.76764,2.26699 -0.0882,0.34446 1.70051,3.0291 2.01821,3.0291 0.17138,0 0.2063,0.17039 0.0776,0.37864 -0.12871,0.20825 -0.0435,0.37864 0.18932,0.37864 0.23283,0 0.31803,0.17038 0.18932,0.37864 -0.12871,0.20825 -0.0536,0.37863 0.16697,0.37863 0.22054,0 0.37304,0.12779 0.33887,0.28398 -0.11106,0.5078 0.51518,2.36649 0.79733,2.36649 0.15097,0 0.27449,0.21812 0.27449,0.48472 0,0.26659 0.3086,1.29279 0.68579,2.28043 0.65345,1.71104 0.71664,1.76407 1.33992,1.1245 0.35977,-0.36918 0.58067,-0.79902 0.49088,-0.9552 -0.0898,-0.15619 0.0273,-0.28398 0.26009,-0.28398 0.23283,0 0.32702,-0.15584 0.20931,-0.3463 -0.11772,-0.19047 -0.0852,-0.40345 0.0723,-0.4733 0.15748,-0.0699 1.13302,-1.39044 2.16786,-2.93464 2.47556,-3.69408 7.15894,-8.60344 11.17026,-11.70924 1.77631,-1.37533 3.3339,-2.64772 3.46131,-2.82753 0.12741,-0.17982 0.38299,-0.31099 0.56795,-0.2915 0.18497,0.0195 0.62009,-0.20754 0.96693,-0.50452 0.34684,-0.29697 0.73021,-0.44035 0.85193,-0.31863 0.12173,0.12173 0.22132,0.0125 0.22132,-0.24277 0,-0.25525 0.17039,-0.35878 0.37864,-0.23008 0.20825,0.12871 0.37864,0.0435 0.37864,-0.18932 0,-0.23283 0.17039,-0.31802 0.37864,-0.18931 0.20825,0.1287 0.37864,0.0435 0.37864,-0.18932 0,-0.23284 0.17038,-0.31803 0.37863,-0.18932 0.20825,0.1287 0.37864,0.0252 0.37864,-0.23008 0,-0.25525 0.1068,-0.3573 0.23732,-0.22677 0.13054,0.13053 0.76949,-0.0448 1.4199,-0.38953 0.65041,-0.34477 1.35296,-0.66183 1.56121,-0.70458 0.20825,-0.0427 0.8046,-0.24461 1.32523,-0.44859 0.52063,-0.20399 1.11698,-0.41312 1.32523,-0.46476 0.20825,-0.0516 1.19922,-0.33756 2.20214,-0.6354 4.7219,-1.40225 8.02575,-1.75073 17.48705,-1.84448 6.01999,-0.0597 9.63752,0.0469 9.93723,0.29271 0.25921,0.21259 0.8128,0.29721 1.2302,0.18805 0.4174,-0.10915 0.85937,-0.0359 0.98215,0.16275 0.12279,0.19867 0.50633,0.32687 0.85232,0.2849 0.34599,-0.042 0.88465,0.0125 1.19703,0.12096 2.18021,0.75724 4.71667,1.37144 4.98324,1.20668 0.17473,-0.10799 0.31769,-0.0294 0.31769,0.17456 0,0.35058 2.13567,1.03664 2.74513,0.88184 0.15619,-0.0397 0.28398,0.0798 0.28398,0.26546 0,0.32931 1.80095,0.98412 2.36649,0.86043 0.15619,-0.0342 0.28398,0.11833 0.28398,0.33887 0,0.22055 0.17038,0.29568 0.37863,0.16698 0.20826,-0.12871 0.37864,-0.0435 0.37864,0.18932 0,0.23283 0.17039,0.31802 0.37864,0.18932 0.20825,-0.12871 0.37864,-0.0435 0.37864,0.18931 0,0.23284 0.15584,0.32702 0.3463,0.20931 0.19046,-0.11771 0.40344,-0.0711 0.4733,0.1037 0.13571,0.33953 4.34476,3.09706 4.6933,3.07479 0.11424,-0.007 0.53358,0.37757 0.93187,0.85527 0.39829,0.4777 0.72983,0.77174 0.73676,0.65341 0.0187,-0.31864 6.07081,5.79392 6.07081,6.1314 0,0.15858 0.37868,0.55357 0.84152,0.87776 0.46284,0.32418 0.72054,0.58942 0.57266,0.58942 -0.14787,0 0.30233,0.89454 1.00047,1.98785 1.61964,2.53648 3.2791,5.86366 4.48516,8.99266 0.52175,1.35363 1.08387,2.80192 1.24915,3.21843 0.16528,0.4165 0.26912,0.95741 0.23075,1.20202 -0.0384,0.24461 0.0977,0.54824 0.30239,0.67474 0.20467,0.1265 0.28277,0.46289 0.17354,0.74753 -0.10922,0.28464 -0.0326,0.62013 0.17031,0.74553 0.2029,0.12539 0.28486,0.54937 0.18215,0.94216 -0.10272,0.39279 -0.009,0.82405 0.20833,0.95834 0.21729,0.1343 0.2991,0.49431 0.18179,0.80001 -0.11731,0.30571 -0.0891,0.85401 0.0628,1.21845 0.32957,0.79102 0.38511,1.61662 0.48548,7.21647 0.0562,3.13403 0.19439,4.20932 0.51555,4.01083 0.32446,-0.20053 0.37379,0.35075 0.18932,2.11571 -0.13722,1.31279 -0.24949,19.14504 -0.24949,39.62722 v 37.24031 h -19.31054 -19.31055 l -0.0267,-19.97316 c -0.0281,-21.02272 -0.53752,-52.86483 -0.89194,-55.75447 -1.99438,-16.26046 -9.64534,-23.83848 -24.07149,-23.84203 -2.23699,-5.7e-4 -5.04329,0.25065 -6.41682,0.5744 -7.49018,1.76544 -12.77922,6.99289 -15.49668,15.31623 -0.44194,1.35363 -0.77502,2.54634 -0.74018,2.65047 0.0348,0.10412 -0.12329,0.53806 -0.3514,0.9643 -0.22812,0.42624 -0.52732,1.61895 -0.66489,2.65047 -0.13758,1.03151 -0.31314,2.30145 -0.39016,2.82207 -0.69721,4.71344 -0.92711,15.33144 -0.92845,42.88078 l -0.002,31.71094 H 570.19201 550.8384 l 0.26383,-28.11388 c 0.27881,-29.70983 -0.0978,-45.56401 -1.18497,-49.88558 -0.13097,-0.52063 -0.28341,-1.20217 -0.33876,-1.51455 -0.17365,-0.98001 -0.46987,-2.00483 -1.31332,-4.54366 -3.47841,-10.47013 -10.68676,-15.52416 -22.14145,-15.52416 -11.92759,0 -19.00184,5.17232 -22.26833,16.28144 -1.224,4.16274 -1.32499,4.64791 -1.57721,7.57714 -0.11635,1.35122 -0.32007,3.22351 -0.4527,4.16064 -0.13263,0.93713 -0.24497,17.46469 -0.24963,36.7279 -0.005,19.26322 -0.11304,32.46823 -0.24082,29.34446 l -0.23233,-5.67957 -0.0792,5.58491 -0.0792,5.58491 h -19.12123 -19.12122 z"
       id="path2453"
       inkscape:connector-curvature="0"
       transform="matrix(0.75000002,0,0,-0.75000002,0,262.50001)" /><path
       style="opacity:0;fill:#ffffff;fill-opacity:0.98039216;stroke:#333333;stroke-width:0;stroke-miterlimit:4;stroke-dasharray:none;stroke-dashoffset:0;stroke-opacity:0.96078431"
       d="m 367.61253,276.49131 c -0.0347,-0.0258 -1.34096,-0.15572 -2.90285,-0.28885 -1.56188,-0.13313 -3.26575,-0.3142 -3.78638,-0.40238 -0.52062,-0.0882 -1.62814,-0.26314 -2.46115,-0.38881 -3.58844,-0.54138 -4.24701,-0.66278 -5.86889,-1.08185 -0.52062,-0.13453 -1.37256,-0.32487 -1.89319,-0.42299 -0.52063,-0.0981 -2.186,-0.50993 -3.70083,-0.91513 -1.51483,-0.4052 -2.79273,-0.74166 -2.83979,-0.74769 -0.0471,-0.006 -0.34113,-0.10653 -0.6535,-0.22333 -3.06452,-1.14582 -8.33126,-2.76113 -8.33584,-2.5566 -0.003,0.14241 -0.13098,0.063 -0.28398,-0.17653 -0.153,-0.2395 -0.61895,-0.49508 -1.03546,-0.56795 -0.4165,-0.0729 -0.84247,-0.22819 -0.94659,-0.34514 -0.31597,-0.35487 -5.46277,-2.44466 -5.77086,-2.34317 -0.15804,0.0521 -0.28735,-0.0858 -0.28735,-0.30633 0,-0.22054 -0.17039,-0.29568 -0.37864,-0.16697 -0.20825,0.1287 -0.37864,0.0435 -0.37864,-0.18932 0,-0.23283 -0.17039,-0.31803 -0.37864,-0.18932 -0.20825,0.12871 -0.37863,0.0435 -0.37863,-0.18932 0,-0.23283 -0.17039,-0.31803 -0.37864,-0.18932 -0.20825,0.12871 -0.37864,0.0435 -0.37864,-0.18932 0,-0.23283 -0.17039,-0.31802 -0.37864,-0.18932 -0.20825,0.12871 -0.37864,0.0435 -0.37864,-0.18932 0,-0.23283 -0.17038,-0.31802 -0.37864,-0.18932 -0.20825,0.12871 -0.37863,0.0923 -0.37863,-0.0809 0,-0.37653 -2.66769,-1.85309 -3.10328,-1.71767 -0.16746,0.0521 -0.30447,-0.0642 -0.30447,-0.25846 0,-0.19422 -0.37027,-0.47064 -0.82283,-0.61428 -0.45255,-0.14364 -1.1599,-0.57519 -1.57189,-0.95902 -0.41199,-0.38382 -0.89365,-0.6085 -1.07036,-0.49928 -0.17672,0.10921 -0.3213,0.0181 -0.3213,-0.20242 0,-0.22054 -0.25558,-0.40098 -0.56796,-0.40098 -0.31237,0 -0.56795,-0.17039 -0.56795,-0.37864 0,-0.20825 -0.25558,-0.37864 -0.56796,-0.37864 -0.31238,0 -0.56796,-0.17039 -0.56796,-0.37864 0,-0.20825 -0.16161,-0.37864 -0.35913,-0.37864 -0.19752,0 -0.81876,-0.42596 -1.38052,-0.94659 -0.56177,-0.52063 -1.21423,-0.9466 -1.44991,-0.9466 -0.23569,0 -0.69545,-0.29817 -1.02169,-0.66261 -0.32625,-0.36444 -0.98088,-0.9182 -1.45475,-1.23058 -1.37059,-0.9035 -2.96766,-2.26844 -5.97485,-5.10645 -1.54165,-1.45492 -2.91829,-2.7343 -3.05918,-2.84307 -0.1409,-0.10877 -0.67396,-0.66986 -1.18457,-1.24687 l -0.9284,-1.04911 3.76818,-3.80247 c 2.0725,-2.09135 7.98418,-7.89877 13.13707,-12.90536 l 9.36888,-9.1029 3.26789,2.78793 c 12.1237,10.34308 20.54181,15.70095 30.43573,19.3714 6.468,2.39949 10.62903,3.10754 18.17464,3.09259 7.0196,-0.0139 9.73393,-0.42504 15.32127,-2.32071 10.05735,-3.41224 15.77123,-11.92545 14.31567,-21.32918 -1.35769,-8.77147 -8.23916,-14.75011 -25.28261,-21.9656 -4.56399,-1.93221 -6.09891,-2.59575 -11.07516,-4.78776 -0.78094,-0.344 -1.88424,-0.8623 -2.45178,-1.15178 -0.56753,-0.28948 -1.12307,-0.51574 -1.23454,-0.50279 -0.11146,0.013 -0.69043,-0.2287 -1.2866,-0.53699 -0.59617,-0.30829 -1.19074,-0.45373 -1.32127,-0.3232 -0.13053,0.13053 -0.23732,0.0385 -0.23732,-0.20442 0,-0.24296 -0.12779,-0.40671 -0.28398,-0.3639 -0.15619,0.0428 -0.83774,-0.21714 -1.51455,-0.57768 -0.67682,-0.36054 -1.23058,-0.55877 -1.23058,-0.44052 0,0.11825 -0.73862,-0.21787 -1.6414,-0.74692 -0.90276,-0.52906 -1.7547,-0.84862 -1.89319,-0.71013 -0.13848,0.13848 -0.25179,0.0429 -0.25179,-0.2123 0,-0.25525 -0.17038,-0.35879 -0.37864,-0.23008 -0.20825,0.1287 -0.37863,0.072 -0.37863,-0.12593 0,-0.34612 -1.78158,-1.01071 -2.36649,-0.88278 -0.15619,0.0342 -0.28398,-0.11833 -0.28398,-0.33887 0,-0.22054 -0.15584,-0.30467 -0.3463,-0.18696 -0.19046,0.11771 -0.40345,0.0616 -0.4733,-0.12457 -0.18205,-0.48538 -9.29468,-4.9498 -9.56059,-4.68389 -0.12192,0.12192 -0.22168,0.0128 -0.22168,-0.24241 0,-0.25525 -0.17039,-0.35879 -0.37864,-0.23008 -0.20825,0.12871 -0.37864,0.0923 -0.37864,-0.0809 0,-0.37652 -2.66768,-1.85309 -3.10327,-1.71766 -0.16746,0.0521 -0.30447,-0.0642 -0.30447,-0.25846 0,-0.19422 -0.37027,-0.47065 -0.82283,-0.61428 -0.45255,-0.14364 -1.17331,-0.58768 -1.60168,-0.98676 -0.42836,-0.39909 -1.16561,-0.82269 -1.63832,-0.94133 -0.4727,-0.11864 -0.85947,-0.36763 -0.85947,-0.5533 0,-0.18568 -0.25558,-0.33759 -0.56795,-0.33759 -0.31238,0 -0.56796,-0.17039 -0.56796,-0.37864 0,-0.20825 -0.25558,-0.37864 -0.56796,-0.37864 -0.31237,0 -0.56796,-0.17573 -0.56796,-0.39052 0,-0.21479 -0.26293,-0.49142 -0.5843,-0.61474 -0.32137,-0.12332 -1.1307,-0.70797 -1.79853,-1.29921 -0.66783,-0.59125 -1.35439,-1.12396 -1.52569,-1.1838 -0.64063,-0.22377 -8.1988,-7.77434 -10.15292,-10.1427 -1.11687,-1.35363 -2.15847,-2.51795 -2.31466,-2.58736 -0.15618,-0.0694 -0.28397,-0.35543 -0.28397,-0.63557 0,-0.28015 -0.22018,-0.73452 -0.48929,-1.00971 -0.26911,-0.27519 -0.71575,-1.0541 -0.99253,-1.73091 -0.27679,-0.67682 -0.68136,-1.23058 -0.89906,-1.23058 -0.21769,0 -0.28545,-0.11035 -0.15058,-0.24523 0.13488,-0.13487 -0.11372,-0.94421 -0.55245,-1.79853 -0.43872,-0.85432 -0.93987,-1.83832 -1.11367,-2.18668 -0.48777,-0.97773 -1.37602,-5.0826 -1.87028,-8.64326 -0.63486,-4.5734 -0.50178,-9.8192 0.35851,-14.1324 0.21498,-1.07784 0.46434,-2.38569 0.55413,-2.90631 0.0898,-0.52063 0.3613,-1.45776 0.60335,-2.08251 0.24204,-0.62476 0.44852,-1.22111 0.45882,-1.32524 0.0103,-0.10412 0.16872,-0.58378 0.35203,-1.0659 0.1833,-0.48212 0.33327,-1.04188 0.33327,-1.2439 0,-0.20202 0.26128,-0.76607 0.58062,-1.25345 0.31934,-0.48737 0.64442,-1.21743 0.7224,-1.62234 0.078,-0.40491 0.58344,-1.38703 1.12325,-2.18248 0.53981,-0.79546 0.98148,-1.67808 0.98148,-1.9614 0,-0.28332 0.17038,-0.51512 0.37863,-0.51512 0.20825,0 0.37864,-0.25558 0.37864,-0.56796 0,-0.31237 0.17039,-0.56795 0.37864,-0.56795 0.20825,0 0.37864,-0.25558 0.37864,-0.56796 0,-0.31238 0.17573,-0.56796 0.39052,-0.56796 0.21479,0 0.50391,-0.29818 0.64249,-0.66262 0.13858,-0.36443 0.65337,-0.98021 1.14397,-1.3684 0.4906,-0.38818 0.81764,-0.78014 0.72676,-0.87102 -0.27273,-0.27273 8.99252,-8.835742 9.56034,-8.835742 0.16447,0 0.74439,-0.412743 1.28872,-0.917207 0.54432,-0.504464 1.33595,-1.027107 1.75916,-1.16143 0.42321,-0.134323 0.76948,-0.368899 0.76948,-0.521281 0,-0.152383 0.59635,-0.492704 1.32523,-0.75627 0.72888,-0.263566 1.32524,-0.609443 1.32524,-0.768617 0,-0.159173 0.89453,-0.678321 1.98785,-1.153661 1.09331,-0.475341 2.5842,-1.130003 3.31308,-1.454806 0.72888,-0.324803 1.49562,-0.629643 1.70387,-0.677424 0.20825,-0.04778 0.8898,-0.302498 1.51456,-0.56604 0.62475,-0.263542 1.2211,-0.507722 1.32523,-0.542623 0.10412,-0.0349 0.66233,-0.259636 1.24046,-0.499413 0.57813,-0.239777 1.43007,-0.505145 1.89319,-0.589708 0.46313,-0.08456 1.60879,-0.371369 2.54592,-0.637349 0.93713,-0.26598 1.87426,-0.531139 2.08251,-0.589242 0.20825,-0.0581 0.8898,-0.201563 1.51455,-0.318799 0.62476,-0.117236 1.56189,-0.313086 2.08251,-0.435221 0.90876,-0.213187 1.39301,-0.30636 3.69173,-0.710307 4.17446,-0.733567 19.51389,-0.98777 24.89546,-0.412564 5.02303,0.536885 5.21785,0.566707 10.60186,1.622853 1.66601,0.32681 3.36988,0.646148 3.78639,0.70964 0.4165,0.06349 1.14064,0.209813 1.60921,0.325158 0.46856,0.115345 1.15011,0.279782 1.51455,0.365415 0.36444,0.08563 1.08859,0.320801 1.60921,0.522596 0.52063,0.201795 1.0786,0.374665 1.23994,0.384157 0.16134,0.0095 1.9504,0.576861 3.9757,1.260824 2.0253,0.683962 3.76755,1.265083 3.87168,1.29138 0.58251,0.147115 1.83309,0.679157 2.73575,1.163893 0.56754,0.30477 1.12308,0.543533 1.23454,0.530586 0.11147,-0.01295 0.71026,0.238944 1.33064,0.559759 0.62039,0.320816 1.21825,0.573223 1.32857,0.560905 0.3544,-0.03957 6.79493,3.205842 7.28769,3.672308 0.26155,0.247586 0.84996,0.568991 1.30758,0.714234 0.45762,0.145243 1.06513,0.497179 1.35004,0.78208 0.2849,0.284902 0.76141,0.518003 1.05891,0.518003 0.2975,0 0.54091,0.170387 0.54091,0.378638 0,0.208251 0.24138,0.378639 0.53641,0.378639 0.29502,0 0.59319,0.12779 0.66261,0.283978 0.1916,0.431093 2.50237,1.987848 2.95067,1.987848 0.21668,0 0.39397,0.17039 0.39397,0.37864 0,0.20825 0.23735,0.37864 0.52745,0.37864 0.29009,0 0.62552,0.25558 0.74539,0.56796 0.11987,0.31237 0.46064,0.56795 0.75728,0.56795 0.29663,0 0.6374,0.25558 0.75727,0.56796 0.11987,0.31238 0.43789,0.56796 0.70671,0.56796 0.26882,0 0.70158,0.34077 0.96169,0.75727 0.26011,0.41651 0.62045,0.75728 0.80076,0.75728 0.68822,0 6.85987,5.62843 6.85987,6.25607 0,0.6089 -3.84626,5.20619 -7.75402,9.2681 -1.70296,1.77013 -5.10806,5.34826 -7.56688,7.9514 -5.65983,5.99202 -7.38567,7.54733 -8.3905,7.56146 -0.44208,0.006 -1.97557,-0.95372 -3.40774,-2.13318 -8.20546,-6.75758 -20.31393,-13.13134 -30.54707,-16.07963 -6.71111,-1.93355 -9.79276,-2.3727 -16.54687,-2.35804 -5.50454,0.0119 -6.68606,0.13067 -9.93497,0.99832 -10.08068,2.69214 -15.43379,8.56537 -15.43379,16.93336 0,10.51035 8.27944,17.79125 29.91242,26.30485 4.06089,1.59815 7.92035,3.14884 8.57658,3.44597 0.65623,0.29713 1.38268,0.54024 1.61435,0.54024 0.23167,0 0.71708,0.15051 1.07869,0.33446 0.61524,0.31297 1.36998,0.63208 3.68659,1.55873 4.11804,1.64721 7.6397,3.18973 10.0724,4.41178 0.9583,0.4814 1.85283,0.76481 1.98785,0.62979 0.13502,-0.13502 0.24549,-0.0467 0.24549,0.19625 0,0.24297 0.12779,0.40726 0.28397,0.3651 0.37272,-0.10059 6.97002,3.12662 7.54052,3.68861 0.24258,0.23896 1.00932,0.66694 1.70387,0.95107 0.69455,0.28413 1.48798,0.73678 1.76317,1.00589 0.27518,0.26911 0.74375,0.48929 1.04125,0.48929 0.2975,0 0.54091,0.16714 0.54091,0.37143 0,0.20428 0.42597,0.47833 0.9466,0.609 0.52063,0.13067 0.94659,0.3895 0.94659,0.57517 0,0.18567 0.17752,0.33759 0.39447,0.33759 0.21696,0 0.76025,0.34078 1.20731,0.75728 0.44707,0.4165 1.0363,0.75727 1.30941,0.75727 0.2731,0 0.49656,0.17039 0.49656,0.37864 0,0.20825 0.17758,0.37864 0.39462,0.37864 0.42763,0 1.19065,0.56393 2.17732,1.60921 0.344,0.36444 0.80531,0.66262 1.02512,0.66262 0.21982,0 0.67232,0.29818 1.00557,0.66262 0.33325,0.36444 2.41445,2.45168 4.62488,4.63831 5.14777,5.09236 4.85606,4.76063 6.32599,7.19413 0.69185,1.14538 1.35165,2.1677 1.46622,2.27183 0.30137,0.27388 2.68112,5.28297 2.57196,5.41365 -0.0505,0.0605 0.21029,0.57098 0.57953,1.13451 0.36924,0.56353 0.56136,1.0246 0.42694,1.0246 -0.13443,0 -0.0323,0.25558 0.22695,0.56796 0.25925,0.31238 0.36952,0.56796 0.24505,0.56796 -0.12447,0 -0.045,0.46856 0.17658,1.04125 1.03724,2.68072 1.45271,6.64878 1.45695,13.91495 0.004,7.35588 -0.0626,8.19333 -0.91794,11.49428 -0.31012,1.19679 -0.61547,2.50792 -0.67855,2.91361 -0.0631,0.4057 -0.2476,0.95062 -0.41005,1.21094 -0.16245,0.26031 -0.17926,0.4733 -0.0373,0.4733 0.14192,0 0.0459,0.25558 -0.21333,0.56795 -0.25925,0.31238 -0.34445,0.56796 -0.18932,0.56796 0.15512,0 0.0699,0.25558 -0.18932,0.56796 -0.25925,0.31237 -0.32271,0.57056 -0.14102,0.57375 0.18168,0.003 0.10882,0.14631 -0.16193,0.31805 -0.27074,0.17174 -0.51999,0.68029 -0.55387,1.13012 -0.0339,0.44982 -0.20579,0.81786 -0.38202,0.81786 -0.17622,0 -0.22409,0.15584 -0.10638,0.3463 0.11771,0.19047 0.0852,0.40345 -0.0723,0.4733 -0.33022,0.14647 -1.63702,2.63376 -1.61232,3.0688 0.009,0.16023 -0.32189,0.6546 -0.73553,1.0986 -0.41365,0.44399 -0.67376,0.93399 -0.57803,1.08888 0.0957,0.15489 -0.0913,0.38347 -0.41573,0.50794 -0.32438,0.12448 -0.49477,0.38006 -0.37864,0.56796 0.11613,0.1879 -0.0543,0.44348 -0.37864,0.56796 -0.32438,0.12447 -0.49477,0.38005 -0.37864,0.56795 0.11613,0.18791 -0.0435,0.43934 -0.35463,0.55875 -0.31119,0.11941 -0.5658,0.41092 -0.5658,0.6478 0,0.23688 -0.42596,0.76575 -0.94659,1.17528 -0.52063,0.40953 -0.9466,0.88977 -0.9466,1.0672 0,0.35576 -4.72702,5.04785 -6.29511,6.2486 -0.54392,0.4165 -1.30949,1.05545 -1.70126,1.41989 -0.39177,0.36444 -0.88269,0.66262 -1.09094,0.66262 -0.20825,0 -0.37864,0.17038 -0.37864,0.37864 0,0.20825 -0.25558,0.37863 -0.56796,0.37863 -0.31237,0 -0.56796,0.17039 -0.56796,0.37864 0,0.20825 -0.25558,0.37864 -0.56795,0.37864 -0.31238,0 -0.56796,0.17039 -0.56796,0.37864 0,0.20825 -0.24341,0.37864 -0.54091,0.37864 -0.2975,0 -0.80867,0.26775 -1.13592,0.595 -0.32725,0.32725 -0.59761,0.45504 -0.6008,0.28398 -0.003,-0.17107 -0.13097,-0.14064 -0.28397,0.0676 -0.34045,0.46339 -5.46742,3.00815 -5.8631,2.91014 -0.15619,-0.0387 -0.28398,0.12843 -0.28398,0.37139 0,0.24296 -0.1076,0.33415 -0.2391,0.20264 -0.13151,-0.13151 -0.60007,-0.0404 -1.04126,0.20236 -0.44118,0.2428 -1.13553,0.49669 -1.54299,0.5642 -0.40746,0.0675 -0.87341,0.33141 -1.03546,0.58647 -0.16203,0.25505 -0.29722,0.31508 -0.30041,0.1334 -0.003,-0.18169 -0.26138,-0.11823 -0.57375,0.14102 -0.31238,0.25925 -0.56796,0.34444 -0.56796,0.18932 0,-0.15513 -0.28177,-0.0482 -0.62615,0.23761 -0.34439,0.28582 -0.68516,0.47707 -0.75728,0.425 -0.0721,-0.0521 -0.17372,-0.0816 -0.22578,-0.0657 -0.0521,0.0159 -0.35024,0.0829 -0.66262,0.14891 -0.31238,0.066 -1.93106,0.48535 -3.59706,0.93197 -4.52445,1.21291 -5.77598,1.4817 -8.14072,1.7484 -0.93713,0.10569 -2.1465,0.28041 -2.68749,0.38825 -1.89134,0.37706 -5.14341,0.52117 -14.09886,0.62479 -4.96334,0.0574 -9.05263,0.0834 -9.08731,0.0576 z"
       id="path2455"
       inkscape:connector-curvature="0"
       transform="matrix(0.75000002,0,0,-0.75000002,0,262.50001)" /></g></svg>